<?xml version="1.0" encoding="utf-8"?>
<!-- Generator: Adobe Illustrator 27.5.0, SVG Export Plug-In . SVG Version: 6.00 Build 0)  -->
<svg version="1.1" id="Layer_1" xmlns="http://www.w3.org/2000/svg" xmlns:xlink="http://www.w3.org/1999/xlink" x="0px" y="0px"
	 viewBox="0 0 385.876 429.331" style="enable-background:new 0 0 385.876 429.331;" xml:space="preserve">
<g>
	<g>
		<path style="fill:#223148;" d="M119.408,330.847c1.264,9.619,2.041,19.291,3.045,28.938c0.492,4.729,1.037,9.455,1.741,14.158
			c0.771,5.157,1.711,10.293,2.581,15.434c1.775,10.484,3.572,20.965,5.491,31.424c0.128,0.697,0.261,1.394,0.391,2.091h46.828
			l-56.108-111.093l-6.801,2.409C117.784,319.703,118.676,325.272,119.408,330.847z"/>
		<path style="fill:#38393A;" d="M380.088,422.892c-3.996-16.75-13.266-60.281-22.433-70.513
			c-11.474-12.806-66.178-30.317-66.178-30.317l-28.978-10.264l-56.108,111.093H380.088z"/>
		<path style="opacity:0.62;fill:#324460;" d="M329.236,407.366c0.599-2.913,1.336-5.803,2.007-8.7
			c1.319-5.695,2.62-11.395,3.853-17.11c-0.34,0.939-0.681,1.878-1.019,2.819c-2.121,5.91-4.178,11.843-6.069,17.831
			c-1.893,5.994-3.542,12.042-4.948,18.168c-0.192,0.838-0.374,1.678-0.56,2.518h4.305c0.351-2.588,0.696-5.176,1.083-7.759
			C328.277,412.534,328.707,409.94,329.236,407.366z"/>
		<path style="opacity:0.62;fill:#324460;" d="M298.916,413.766c0.934-8.283,1.882-16.565,2.749-24.856
			c0.867-8.288,1.654-16.586,2.265-24.897c0.561-7.625,1.45-15.213,2.082-22.831c0.383-4.62,0.656-9.29,0.533-13.94
			c-8.768-3.163-15.068-5.18-15.068-5.18l-28.978-10.264l-56.108,111.093H297.9C298.234,419.849,298.573,416.808,298.916,413.766z"
			/>
		<path style="fill:#18191A;" d="M273.044,398.326c1.075-11.493,2.033-22.996,2.94-34.504c0.901-11.436,1.574-22.899,2.943-34.292
			c0.457-3.804,0.95-7.608,1.405-11.417l-17.832-6.316l-56.108,111.093h65.174C271.859,414.693,272.279,406.506,273.044,398.326z"/>
		<path style="fill:#38393A;" d="M179.485,422.892l-56.108-111.093L94.4,322.062c0,0-54.705,17.511-66.178,30.317
			c-9.167,10.232-18.438,53.763-22.433,70.513H179.485z"/>
		<path style="fill:#18191A;" d="M83.59,329.408c0.021,2.131,0.037,4.262,0.136,6.391c0.096,2.061,0.355,4.09,0.583,6.138
			c1.059,9.496,1.778,19.025,2.753,28.528c0.964,9.391,2.338,18.731,3.872,28.045c1.341,8.137,2.795,16.255,4.193,24.382h84.357
			l-56.108-111.093L94.4,322.062c0,0-4.355,1.394-10.864,3.683C83.564,326.967,83.578,328.189,83.59,329.408z"/>
		<path style="opacity:0.62;fill:#324460;" d="M58.422,408.594c-1.36-8.224-2.956-16.411-4.918-24.513
			c0.258,2.812,0.505,5.625,0.733,8.44c0.588,7.264,1.084,14.535,1.534,21.808c0.177,2.854,0.342,5.708,0.507,8.563h4.304
			C59.918,418.117,59.209,413.35,58.422,408.594z"/>
		<g>
			<path style="fill:#EFB291;" d="M235.887,306.86c-13.328-8.095-9.596-52.615-9.596-52.615h-26.124h-9.063h-26.123
				c0,0,3.732,44.521-9.596,52.615c-13.328,8.095-19.919,53.538,7.518,71.115c0,0,7.106,7.603,32.733,7.256
				c25.628,0.347,32.733-7.256,32.733-7.256C255.807,360.398,249.215,314.954,235.887,306.86z"/>
			<path style="opacity:0.64;fill:#EB936D;" d="M175.111,270.035c2.767,1.707,5.683,3.187,8.74,4.304
				c3.115,1.138,6.381,1.887,9.675,2.27c6.233,0.725,12.511-0.099,18.421-2.172c4.921-1.726,9.524-4.238,13.865-7.117
				c0.016-7.53,0.48-13.076,0.48-13.076h-61.31c0,0,0.286,3.423,0.417,8.543C168.454,265.44,171.665,267.909,175.111,270.035z"/>
			<path style="opacity:0.64;fill:#EB936D;" d="M235.887,306.86c-4.11-2.496-6.597-8.457-8.072-15.507
				c-4.672,5.363-9.48,10.607-14.177,15.949c-6.371,7.245-12.556,14.696-17.778,22.825c-0.103,0.161-0.329,0.202-0.469,0.061
				c-3.304-3.317-5.958-7.21-8.448-11.156c-2.25-3.566-4.349-7.228-6.834-10.638c-2.519-3.456-5.222-6.772-7.947-10.064
				c-2.737-3.306-5.502-6.601-8.146-9.985c-1.372,8.328-3.947,15.672-8.63,18.517c-13.328,8.095-19.919,53.538,7.518,71.115
				c0,0,7.106,7.603,32.733,7.256c25.628,0.347,32.733-7.256,32.733-7.256C255.807,360.398,249.216,314.954,235.887,306.86z"/>
			<path style="fill:#F7E3D3;" d="M149.716,291.935c0,0,9.398-5.58,11.6-3.912s52.604,90.694,52.604,90.694l-26.609,9.702
				C187.311,388.418,151.144,306.146,149.716,291.935z"/>
			<path style="fill:#F7E3D3;" d="M191.595,339.5c-1.672,2.176-3.256,4.422-4.783,6.702c-2.458,3.672-4.777,7.433-7.124,11.177
				c-1.138,1.815-2.264,3.637-3.387,5.462c6.19,14.614,11.009,25.578,11.009,25.578l26.609-9.702
				C213.92,378.717,203.299,359.957,191.595,339.5z"/>
			<path style="fill:#F7E3D3;" d="M239.868,291.545c0,0-9.398-5.58-11.6-3.912c-2.201,1.668-46.54,72.549-46.54,72.549
				l20.544,27.846C202.273,388.028,238.44,305.755,239.868,291.545z"/>
			<path style="fill:#38393A;" d="M225.426,422.892c-24.648-34.727-75.043-132.851-75.043-132.851
				c-2.855,0.748-20.55,13.564-20.55,13.564c1.362,38.523,25.543,93.148,37.889,119.287H225.426z"/>
			<path style="opacity:0.62;fill:#324460;" d="M149.303,379.355c-1.544-9.473-2.947-18.968-4.208-28.483
				c-1.267-9.564-2.389-19.148-3.361-28.747c-0.855-8.443-1.585-16.899-2.203-25.363c-4.965,3.414-9.698,6.841-9.698,6.841
				c0.821,23.23,9.94,52.313,19.758,77.476C149.496,380.505,149.397,379.93,149.303,379.355z"/>
			<path style="opacity:0.55;fill:#324460;" d="M191.967,367.593c-2.516,4.111-4.984,8.251-7.43,12.404
				c-3.269,5.552-6.498,11.127-9.745,16.692c-3.247,5.565-6.512,11.121-9.854,16.63c-0.315,0.519-0.634,1.036-0.951,1.554
				c1.329,2.896,2.583,5.58,3.733,8.017h57.704C216.459,410.257,204.084,389.232,191.967,367.593z"/>
			<path style="fill:#38393A;" d="M227.325,422.892c9.862-25.469,29.102-81.54,30.492-120.848c0,0-17.695-12.816-20.55-13.564
				c0,0-51.961,101.173-76.165,134.412H227.325z"/>
			<path style="opacity:0.62;fill:#324460;" d="M240.491,380.094c-0.621,3.61-1.223,7.223-1.82,10.837
				c8.926-27.393,18.197-62.047,19.146-88.887c0,0-2.047-1.482-4.86-3.468c-0.875,9.257-2.616,18.412-4.335,27.542
				c-0.093,0.492-0.187,0.984-0.28,1.476c-0.928,8.267-2.076,16.509-3.316,24.734C243.628,361.601,242.08,370.851,240.491,380.094z"
				/>
		</g>
		<path style="fill:#38393A;" d="M291.268,422.892c5.068-15.457,9.559-55.592,14.152-99.169c0,0-23.325-18.186-45.464-27.422
			c-4.662-1.945-5.855,0.809-5.855,0.809S243.286,378,237.949,422.892H291.268z"/>
		<path style="fill:#38393A;" d="M151.99,422.892c-5.337-44.891-16.152-125.782-16.152-125.782s-1.193-2.754-5.855-0.809
			c-22.139,9.237-45.464,27.422-45.464,27.422c4.593,43.577,9.084,83.712,14.152,99.169H151.99z"/>
	</g>
	<g>
		<g>
			<g>
				<path style="fill:#EFB291;" d="M286.629,167.546c-2.298-7.861-10.373-11.786-17.902-8.793
					c-4.307,1.712-7.423,5.993-9.166,10.202c-1.016,2.453-1.588,5.117-1.879,7.764c-1.535,4.747-2.232,9.952-1.894,14.901
					c0.24,3.505,0.737,9.924,4.291,11.814c3.465,1.843,8.894-1.215,11.798-3.043c3.687-2.321,6.714-5.575,9.165-9.188
					C285.658,184.401,289.059,175.856,286.629,167.546z"/>
				<path style="opacity:0.64;fill:#EB936D;" d="M263.726,203.917c0.462-1.767,0.902-3.541,1.314-5.323
					c1.642-7.106,2.893-14.351,3.374-21.667c0.387-5.884,0.292-11.873-0.722-17.695c-3.772,1.943-6.531,5.861-8.13,9.723
					c-1.016,2.453-1.588,5.117-1.879,7.764c-1.535,4.747-2.232,9.952-1.894,14.901c0.24,3.505,0.737,9.924,4.291,11.814
					C261.151,204.004,262.411,204.104,263.726,203.917z"/>
				<path style="opacity:0.67;fill:#EB936D;" d="M283.037,167.807c-0.844-1.487-2.366-2.36-3.943-2.571
					c-3.63-0.486-7.329,2.258-9.597,5.023c-5.048,6.155-5.914,15.042-6.131,22.908c-0.013,0.46,0.615,0.138,0.658-0.183
					c0.169-1.269,0.34-2.558,0.528-3.853c0.152,0.926,0.371,1.835,0.589,2.649c0.427,1.599,1.371,3.017,3.027,3.105
					c3.999,0.213,6.72-4.896,8.625-7.821c0.179-0.275-0.226-0.352-0.376-0.165c-1.782,2.224-3.621,5.139-6.297,6.211
					c-2.154,0.863-3.129-0.809-3.734-2.714c-0.499-1.57-1.283-3.387-0.971-5.059c0.043-0.232-0.042-0.352-0.172-0.393
					c0.729-3.839,1.772-7.608,3.57-10.952c1.561-2.904,3.946-5.555,7.005-6.602c2.083-0.713,4.365-0.348,5.672,1.698
					c1.221,1.91,0.873,4.437,1.184,6.625c0.037,0.26,0.424,0.008,0.432-0.173C283.208,172.966,284.417,170.239,283.037,167.807z"/>
			</g>
			<g>
				<path style="fill:#EFB291;" d="M113.044,191.203c2.451,3.613,5.479,6.866,9.165,9.188c2.904,1.829,8.333,4.887,11.798,3.043
					c3.553-1.89,4.051-8.309,4.291-11.814c0.339-4.949-0.358-10.155-1.893-14.901c-0.292-2.647-0.864-5.311-1.879-7.764
					c-1.742-4.209-4.859-8.49-9.166-10.202c-7.529-2.993-15.604,0.932-17.902,8.793
					C105.028,175.856,108.429,184.401,113.044,191.203z"/>
				<path style="opacity:0.64;fill:#EB936D;" d="M130.361,203.917c-0.462-1.767-0.902-3.541-1.314-5.323
					c-1.642-7.106-2.893-14.351-3.374-21.667c-0.387-5.884-0.292-11.873,0.722-17.695c3.772,1.943,6.531,5.861,8.131,9.723
					c1.015,2.453,1.588,5.117,1.879,7.764c1.535,4.747,2.232,9.952,1.893,14.901c-0.24,3.505-0.737,9.924-4.291,11.814
					C132.936,204.004,131.676,204.104,130.361,203.917z"/>
				<path style="opacity:0.67;fill:#EB936D;" d="M111.05,167.807c0.844-1.487,2.366-2.36,3.943-2.571
					c3.63-0.486,7.33,2.258,9.597,5.023c5.048,6.155,5.914,15.042,6.131,22.908c0.013,0.46-0.615,0.138-0.658-0.183
					c-0.169-1.269-0.34-2.558-0.528-3.853c-0.152,0.926-0.371,1.835-0.589,2.649c-0.427,1.599-1.371,3.017-3.028,3.105
					c-3.999,0.213-6.72-4.896-8.625-7.821c-0.179-0.275,0.226-0.352,0.376-0.165c1.782,2.224,3.621,5.139,6.297,6.211
					c2.154,0.863,3.129-0.809,3.734-2.714c0.499-1.57,1.283-3.387,0.97-5.059c-0.043-0.232,0.042-0.352,0.172-0.393
					c-0.729-3.839-1.772-7.608-3.57-10.952c-1.561-2.904-3.946-5.555-7.005-6.602c-2.083-0.713-4.365-0.348-5.672,1.698
					c-1.221,1.91-0.873,4.437-1.184,6.625c-0.037,0.26-0.424,0.008-0.432-0.173C110.879,172.966,109.67,170.239,111.05,167.807z"/>
			</g>
			<path style="fill:#EFB291;" d="M270.105,138.222c1.328-15.28,2.17-30.59,1.085-45.929c-0.726-10.258-2.713-21.295-10.226-28.317
				c-3.431-3.207-7.749-5.293-12.098-7.067c-24.367-9.942-54.363-12.249-79.779-4.955c-12.312,3.533-23.755,9.761-33.981,17.474
				c-4.053,3.057-7.768,6.48-10.42,10.399c-0.54,1.246-0.996,2.53-1.341,3.844c-0.441,1.681-0.551,3.424-0.663,5.153
				c-1.819,28.062,0.85,56.182,4.952,83.932c1.761,11.911,4,23.707,5.798,35.646c1.8,11.956,3.491,27.696,13.012,36.066
				c5.269,4.632,11.173,8.463,17.058,12.253c5.741,3.697,11.286,7.87,17.485,10.782c7.713,3.623,16.871,4.688,25.265,2.373
				c8.815-2.431,16.164-8.284,23.727-13.155c5.885-3.79,11.789-7.621,17.058-12.253c2.31-2.03,4.272-4.257,5.753-6.967
				c1.422-2.602,2.421-5.414,3.191-8.271c5.971-22.177,9.747-44.992,11.922-67.846C268.637,153.671,269.433,145.951,270.105,138.222
				z"/>
			<path style="opacity:0.64;fill:#EB936D;" d="M191.949,203.034c-2.919-0.415-5.742-1.292-8.454-2.433
				c0.221,1.146,0.759,2.232,1.538,3.181c1.321,1.609,3.126,2.812,5.036,3.612c1.758,0.736,3.752,1.218,5.665,0.974
				c2.412-0.307,4.776-1.219,6.822-2.522c1.799-1.146,3.463-2.701,4.36-4.664c-1.728,0.655-3.498,1.197-5.31,1.562
				C198.423,203.386,195.164,203.491,191.949,203.034z"/>
			<g>
				<g>
					<path style="fill:#FFFFFF;" d="M249.382,165.068c-1.886-2.748-4.286-5.199-7.162-6.911c-3.296-1.962-7.068-3.008-10.88-3.286
						c-0.316-0.023-0.632-0.035-0.95-0.042c-1.909,0.187-3.761,0.547-5.484,1.07c-2.303,0.7-4.342,1.791-6.034,3.186
						c-2.346,2.187-4.007,4.838-5.052,7.708c-1.034,2.839-1.535,5.822-1.83,8.825c2.11,1.249,4.498,2.151,6.909,2.816
						c3.173,0.875,6.453,1.384,9.717,1.656c1.426,0.118,2.856,0.191,4.283,0.217c1.856-0.173,3.697-0.472,5.493-0.9
						c0.943-0.224,1.879-0.49,2.803-0.791c3.81-2.048,7.356-4.621,10.52-7.568c0.043-0.591,0.063-1.184,0.063-1.778
						C251.092,167.809,250.295,166.399,249.382,165.068z"/>
					<g>
						<g>
							
								<ellipse transform="matrix(0.9752 -0.2213 0.2213 0.9752 -31.1318 55.3105)" style="fill:#92422B;" cx="231.225" cy="166.562" rx="11.932" ry="11.932"/>
							<path style="fill:#1A1716;" d="M239.902,168.473c-1.055,4.792-5.795,7.822-10.587,6.767
								c-4.792-1.055-7.822-5.795-6.767-10.587c1.055-4.792,5.795-7.822,10.587-6.767
								C237.927,158.941,240.956,163.68,239.902,168.473z"/>
							<path style="fill:#FFFFFF;" d="M231.162,161.526c-0.418,1.898-2.295,3.098-4.193,2.68c-1.898-0.418-3.098-2.295-2.68-4.193
								c0.418-1.898,2.295-3.098,4.193-2.68C230.38,157.751,231.58,159.628,231.162,161.526z"/>
							<path style="fill:#FFFFFF;" d="M223.893,165.257c-0.123,0.56-0.678,0.915-1.238,0.791c-0.56-0.123-0.915-0.678-0.791-1.238
								c0.123-0.56,0.678-0.915,1.238-0.791C223.662,164.143,224.016,164.697,223.893,165.257z"/>
						</g>
					</g>
					<path style="fill:#9E7761;" d="M247.133,174.718c-1.385,1.172-3.087,1.884-4.744,2.589c-1.949,0.83-3.943,1.516-6.022,1.938
						c-4.415,0.895-8.86,0.494-13.269-0.236c-2.404-0.398-4.898-0.839-7.198-1.656c-0.043-0.015-0.124,0.06-0.072,0.092
						c1.855,1.138,3.95,1.673,6.042,2.191c2.362,0.585,4.823,0.882,7.246,1.08c2.2,0.179,4.42,0.054,6.592-0.33
						c2.195-0.388,4.432-1.004,6.448-1.967c0.974-0.465,1.961-0.961,2.881-1.528c0.834-0.514,1.779-1.184,2.285-2.043
						C247.401,174.714,247.237,174.63,247.133,174.718z"/>
				</g>
				<path style="fill:#360E00;" d="M249.653,162.488c-0.631-0.769-1.296-1.498-1.973-2.164c-2.854-2.812-6.369-4.925-10.247-5.978
					c-3.924-1.066-8.241-1.089-12.152,0.054c-4.112,1.201-7.869,3.778-10.289,7.339c-0.288,0.424-0.55,0.86-0.797,1.303
					c-1.598,3.116-2.361,6.655-2.001,10.132c0.159-0.599,0.323-1.196,0.502-1.788c0.16-0.736,0.333-1.466,0.546-2.193
					c0.604-2.064,1.285-4.063,2.415-5.906c2.035-3.319,5.216-5.783,8.877-7.071c7.136-2.511,15.254-0.408,20.838,4.49
					c1.652,1.449,3.129,3.14,4.372,4.951c0.606,0.883,1.184,1.801,1.698,2.753C251.103,166.376,250.521,164.362,249.653,162.488z"/>
			</g>
			<g>
				<g>
					<path style="fill:#FFFFFF;" d="M140.64,165.459c1.886-2.748,4.286-5.199,7.162-6.911c3.296-1.962,7.068-3.008,10.88-3.286
						c0.316-0.023,0.632-0.035,0.949-0.042c1.909,0.187,3.762,0.547,5.484,1.07c2.303,0.7,4.343,1.791,6.034,3.186
						c2.345,2.187,4.007,4.838,5.052,7.708c1.033,2.839,1.535,5.822,1.83,8.825c-2.11,1.25-4.498,2.151-6.909,2.816
						c-3.173,0.875-6.453,1.384-9.717,1.655c-1.426,0.119-2.856,0.191-4.283,0.217c-1.856-0.173-3.697-0.472-5.493-0.9
						c-0.943-0.224-1.879-0.49-2.803-0.79c-3.81-2.048-7.356-4.621-10.52-7.568c-0.043-0.591-0.063-1.184-0.063-1.778
						C138.93,168.199,139.727,166.79,140.64,165.459z"/>
					<g>
						<g>
							<path style="fill:#92422B;" d="M170.917,169.559c-1.41,6.406-7.747,10.457-14.154,9.046
								c-6.406-1.41-10.457-7.747-9.046-14.154c1.41-6.407,7.747-10.457,14.154-9.046
								C168.277,156.816,172.327,163.152,170.917,169.559z"/>
							<path style="fill:#1A1716;" d="M167.955,168.907c-1.05,4.77-5.769,7.786-10.539,6.736c-4.77-1.05-7.786-5.769-6.736-10.539
								s5.769-7.786,10.539-6.736C165.989,159.418,169.005,164.136,167.955,168.907z"/>
							<path style="fill:#FFFFFF;" d="M159.255,161.992c-0.416,1.889-2.285,3.084-4.174,2.668c-1.889-0.416-3.084-2.285-2.668-4.174
								c0.416-1.889,2.285-3.084,4.174-2.668C158.476,158.234,159.67,160.103,159.255,161.992z"/>
							<path style="fill:#FFFFFF;" d="M152.018,165.706c-0.123,0.558-0.675,0.91-1.232,0.788c-0.558-0.123-0.911-0.675-0.788-1.232
								c0.123-0.558,0.674-0.911,1.232-0.788C151.788,164.597,152.141,165.148,152.018,165.706z"/>
						</g>
					</g>
					<path style="fill:#9E7761;" d="M142.889,175.108c1.385,1.172,3.087,1.884,4.744,2.589c1.949,0.83,3.943,1.516,6.022,1.938
						c4.415,0.896,8.86,0.494,13.269-0.236c2.404-0.398,4.898-0.839,7.198-1.656c0.043-0.015,0.124,0.06,0.072,0.092
						c-1.855,1.138-3.95,1.673-6.042,2.191c-2.362,0.585-4.823,0.882-7.246,1.08c-2.2,0.179-4.42,0.054-6.592-0.33
						c-2.195-0.388-4.431-1.004-6.448-1.967c-0.974-0.465-1.961-0.961-2.881-1.528c-0.835-0.514-1.779-1.184-2.285-2.043
						C142.621,175.104,142.785,175.02,142.889,175.108z"/>
				</g>
				<path style="fill:#360E00;" d="M140.369,162.878c0.631-0.769,1.296-1.498,1.973-2.164c2.854-2.812,6.37-4.925,10.247-5.978
					c3.924-1.066,8.242-1.089,12.153,0.054c4.111,1.201,7.869,3.778,10.288,7.339c0.288,0.424,0.55,0.86,0.797,1.303
					c1.598,3.116,2.36,6.655,2.001,10.132c-0.159-0.599-0.323-1.196-0.502-1.788c-0.16-0.735-0.333-1.466-0.546-2.193
					c-0.604-2.064-1.285-4.063-2.415-5.906c-2.035-3.319-5.216-5.782-8.877-7.07c-7.136-2.511-15.254-0.408-20.838,4.49
					c-1.652,1.449-3.129,3.14-4.372,4.951c-0.606,0.883-1.184,1.801-1.698,2.753C138.919,166.766,139.501,164.752,140.369,162.878z"
					/>
			</g>
			<path style="fill:#360E00;" d="M260.043,147.025c-1.16-2.544-2.489-4.913-4.333-6.551c-3.003-2.668-6.688-3.739-10.19-4.314
				c-3.59-0.59-7.217-0.624-10.826-0.428c-4.646,0.252-9.287,0.82-13.884,1.785c-3.724,0.782-7.422,1.827-11.055,3.206
				c0.493,1.983,1.155,3.935,1.968,5.719c0.181,0.204,0.365,0.403,0.55,0.594c0.38,0.391,0.773,0.753,1.177,1.09
				c2.115,0.574,4.307,0.689,6.456,0.57c3.582-0.198,7.124-1.028,10.65-1.867c1.615-0.384,3.229-0.776,4.851-1.098
				c1.942-0.385,3.898-0.66,5.848-0.953c2.161-0.325,4.33-0.588,6.505-0.605c2.001-0.016,4.068,0.097,6.014,0.789
				c2.232,0.794,4.26,2.295,6.337,3.635c0.174-0.178,0.297-0.449,0.215-0.679C260.223,147.626,260.132,147.326,260.043,147.025z"/>
			<path style="fill:#360E00;" d="M131.246,147.025c1.16-2.544,2.489-4.913,4.333-6.551c3.003-2.668,6.688-3.739,10.19-4.314
				c3.59-0.59,7.217-0.624,10.826-0.428c4.646,0.252,9.287,0.82,13.884,1.785c3.724,0.782,7.422,1.827,11.055,3.206
				c-0.493,1.983-1.155,3.935-1.968,5.719c-0.181,0.204-0.365,0.403-0.55,0.594c-0.38,0.391-0.773,0.753-1.177,1.09
				c-2.115,0.574-4.307,0.689-6.456,0.57c-3.582-0.198-7.124-1.028-10.65-1.867c-1.615-0.384-3.229-0.776-4.851-1.098
				c-1.942-0.385-3.898-0.66-5.848-0.953c-2.161-0.325-4.33-0.588-6.505-0.605c-2.001-0.016-4.068,0.097-6.014,0.789
				c-2.232,0.794-4.26,2.295-6.337,3.635c-0.174-0.178-0.297-0.449-0.215-0.679C131.066,147.626,131.158,147.326,131.246,147.025z"
				/>
			<path style="opacity:0.65;fill:#92422B;" d="M204.843,203.934c-2.113,1.607-4.528,3.051-7.173,3.539
				c-1.293,0.238-2.515,0.183-3.778-0.179c-1.259-0.36-2.481-0.853-3.636-1.473c-1.19-0.639-2.282-1.426-3.291-2.322
				c-0.488-0.433-0.952-0.886-1.383-1.377c-0.403-0.46-0.881-0.97-1.153-1.524c-0.053-0.109-0.081-0.24-0.149-0.341
				c-0.068-0.1-0.168-0.151-0.211-0.272c-0.096-0.271-0.048-0.673-0.034-0.952c0.033-0.637,0.164-1.259,0.323-1.876
				c0.335-1.298,0.725-2.586,1.09-3.875c1.017-3.596,2.111-7.168,3.034-10.791c0.031-0.121-0.144-0.089-0.173-0.003
				c-1.169,3.412-2.417,6.797-3.528,10.229c-0.461,1.424-0.936,2.848-1.368,4.281c-0.197,0.653-0.36,1.316-0.472,1.99
				c-0.051,0.303-0.085,0.61-0.093,0.917c-0.004,0.158,0.014,0.316,0.009,0.473c-0.005,0.189-0.092,0.366-0.099,0.552
				c-0.025,0.658,0.408,1.295,0.782,1.791c0.428,0.568,0.896,1.106,1.398,1.61c1.034,1.04,2.208,1.927,3.486,2.649
				c2.539,1.436,5.443,2.131,8.35,1.695c3.12-0.467,6.268-2.083,8.379-4.441C205.371,203.992,205.094,203.744,204.843,203.934z"/>
			<g>
				<path style="opacity:0.65;fill:#92422B;" d="M204.843,237.151c-2.78,0.266-5.601,0.446-8.401,0.436
					c-1.049,0.066-2.1,0.131-3.15,0.122c-0.7-0.006-1.399-0.047-2.077-0.176c-1.199,0.046-2.386,0.184-3.526,0.512
					c0.042,0.059,0.101,0.112,0.184,0.155c2.819,1.459,6.132,1.025,9.18,0.873c1.684-0.084,3.358-0.204,5.021-0.495
					c1.562-0.273,3.206-0.718,4.534-1.624C206.021,237.028,205.432,237.095,204.843,237.151z"/>
				<path style="opacity:0.65;fill:#92422B;" d="M227.557,218.692c-0.104-0.414-0.266-0.807-0.493-1.119
					c-0.127-0.174-0.255-0.341-0.405-0.476c-0.055-0.049-0.112-0.095-0.171-0.136c-0.069-0.048-0.14-0.104-0.217-0.125
					c-0.083-0.022-0.167-0.035-0.25-0.051c-0.057,0.008-0.114,0.015-0.171,0.023c-0.095,0.024-0.182,0.072-0.262,0.144
					c-0.134,0.103-0.275,0.253-0.35,0.44c-0.066,0.163-0.122,0.333-0.179,0.502c-0.035,0.103-0.039,0.274-0.008,0.404
					c-0.015,0.107-0.022,0.215-0.026,0.324c-0.015,0.028-0.031,0.055-0.043,0.084c-0.012,0.03-0.021,0.062-0.032,0.093
					c-2.639,2.156-5.859,2.895-8.827,3.718c-3.71,1.028-7.387,2.195-11.125,3.039c-8.101,1.83-16.342,2.805-24.555,2.69
					c-0.932-0.013-1.867-0.104-2.799-0.09c-0.585,0.009-1.168,0.055-1.753,0.048c-0.46-0.005-0.931-0.026-1.386-0.147
					c-0.389-0.682-0.926-1.596-1.579-1.753c-0.639-0.154-1.586,0.6-1.403,1.629c0.593,3.333,4.363,1.988,6.074,1.862
					c4.329-0.319,8.646-0.621,12.967-1.126c4.204-0.492,8.406-1.095,12.592-1.816c2.071-0.357,4.136-0.772,6.19-1.282
					c1.92-0.477,3.82-1.077,5.735-1.586c3.446-0.915,7.135-1.614,10.215-4.055c0.044,0.022,0.088,0.046,0.137,0.056
					c0.153,0.033,0.307,0.061,0.461,0.078c0.197,0.022,0.395,0.032,0.591,0.068c-0.046-0.009-0.092-0.018-0.138-0.027
					c0.128,0.027,0.25,0.045,0.379,0.008c0.187-0.052,0.355-0.183,0.498-0.35c0.113-0.132,0.201-0.278,0.266-0.462
					C227.553,219.127,227.607,218.888,227.557,218.692z"/>
			</g>
			<path style="fill:#281F19;" d="M279.879,89.989c-0.594-6.979-3.044-14.061-7.201-19.726c-2.033-2.771-4.571-5.247-7.624-6.868
				c-3.269-1.735-6.955-2.504-10.642-2.495c-7.549,0.02-15.092,2.935-21.22,7.236c-2.605,1.829-4.997,4.001-7.08,6.408
				c-2.092,2.418-4.296,5.382-4.677,8.656c-0.081,0.699-0.059,1.412,0.065,2.104c0.096,0.537,0.887,0.284,1.116,0.02
				c1.045-1.205,2.63-1.735,4.14-2.083c1.609-0.371,3.256-0.538,4.889-0.763c0.328-0.045,0.556-0.328,0.608-0.593
				c1.644-0.11,3.295-0.134,4.939-0.148c4.448-0.037,9.112-0.017,13.308,1.646c1.996,0.791,3.831,2.011,5.526,3.315
				c1.705,1.313,3.282,2.787,4.734,4.374c2.857,3.121,5.327,6.653,7.318,10.385c0.647,1.213,1.211,2.467,1.713,3.746
				c0.446,1.137,0.899,2.299,1.204,3.484c0.467,1.817,0.566,4.032,1.747,5.572c0.292,0.38,0.828,0.059,1.041-0.228
				c1.136-1.53,1.849-3.354,2.464-5.144c0.64-1.862,1.268-3.736,1.872-5.609C279.498,99.009,280.261,94.478,279.879,89.989z"/>
			<path style="fill:#9F6553;" d="M302.111,77.698c-1-3.773-2.294-7.488-4.151-10.932c-1.841-3.414-4.269-6.476-7.223-8.996
				c-3.477-2.967-7.613-5.126-11.894-6.683c-2.052-0.746-4.157-1.26-6.262-1.826c-2.087-0.561-4.189-1.143-6.348-1.349
				c-0.933-0.089-1.869-0.129-2.798,0.027c-0.396,0.067-0.843,0.462-0.857,0.883c-0.182,5.285-1.546,10.429-2.483,15.609
				c-0.454,2.51-0.833,5.019-1.51,7.483c-0.337,1.228-0.731,2.441-1.197,3.627c-0.348,0.885-0.758,1.742-1.106,2.627
				c-0.36,0.916-0.69,1.849-1.107,2.741c-0.301,0.644-0.706,1.506-1.323,1.945c-0.06,0.005-0.119,0.007-0.179,0.012
				c-0.268,0.023-0.548,0.173-0.635,0.445c-0.076,0.238,0.066,0.462,0.324,0.463c2.768,0.006,5.579,0.212,8.186,1.214
				c2.382,0.915,4.48,2.465,5.895,4.599c2.564,3.868,3.077,8.866,3.067,13.394c-0.005,2.225-0.106,4.444-0.508,6.637
				c-0.413,2.25-1.104,4.454-2.007,6.555c-1.816,4.22-4.585,8.082-8.165,10.981c-3.521,2.85-7.962,4.887-12.539,5.083
				c-0.596,0.026-1.193,0.013-1.789,0.004c-0.355-0.006-1.157,0.565-0.766,0.974c3.965,4.144,10.235,5.444,15.742,5.776
				c1.123,0.068,2.254,0.092,3.385,0.072c0.16,1.227,0.268,2.463,0.31,3.713c0.097,2.861,0.08,5.722,0.159,8.583
				c0.087,3.158,0.417,6.309,0.623,9.462c0.218,3.345,0.394,6.701,0.326,10.055c-0.078,3.883-0.245,7.762-0.298,11.646
				c-0.005,0.367,0.325,0.52,0.652,0.459c0.386-0.071,0.656-0.385,0.731-0.753c1.66-8.14,3.764-16.337,7.07-23.978
				c1.629-3.764,3.363-7.519,5.306-11.132c1.846-3.434,4.005-6.711,6.1-9.996c0.628-0.985,1.265-1.964,1.916-2.934
				c1.508-1.081,2.943-2.264,4.275-3.554c6.598-6.394,11.196-15.069,13.055-24.047C306.072,96.998,304.589,87.055,302.111,77.698z"
				/>
			<path style="opacity:0.6;fill:#9F6553;" d="M251.938,131.786c2.759-0.7,5.473-1.555,8.182-2.427
				c3.729-1.201,7.164-3.223,10.061-5.859c1.532-1.394,2.915-2.955,4.096-4.658c1.089-1.571,1.983-3.268,2.773-5.007
				c1.413-3.112,2.335-6.443,2.828-9.821c0.504-3.456,0.546-6.983,0.17-10.453c-0.377-3.481-1.193-6.922-2.441-10.194
				c-1.231-3.229-2.903-6.303-5.009-9.046c-2.103-2.74-4.655-5.132-7.557-7.008c-0.145-0.094-0.219-0.343-0.06-0.469
				c1.811-1.447,3.951-2.427,6.294-2.506c3.936-0.133,7.525,2.144,10.311,4.719c2.272,2.099,4.248,4.57,5.875,7.223
				c-0.419-1.28-0.891-2.543-1.441-3.773c-1.563-3.49-3.692-6.773-6.55-9.341c-2.939-2.641-6.565-4.317-10.473-4.885
				c-0.327-0.048-0.237-0.483,0-0.576c0.493-0.195,0.989-0.378,1.492-0.548c3.667-1.235,7.59-1.718,11.439-1.254
				c3.572,0.431,7.017,1.64,10.105,3.481c0.382,0.228,0.759,0.466,1.13,0.712c-0.765-0.815-1.571-1.595-2.425-2.324
				c-3.477-2.967-7.613-5.126-11.894-6.683c-2.052-0.746-4.157-1.26-6.262-1.826c-2.087-0.561-4.189-1.143-6.348-1.349
				c-0.933-0.089-1.869-0.129-2.798,0.027c-0.396,0.067-0.843,0.462-0.857,0.883c-0.182,5.285-1.546,10.429-2.483,15.609
				c-0.454,2.51-0.833,5.019-1.51,7.483c-0.337,1.228-0.731,2.441-1.197,3.627c-0.348,0.885-0.758,1.742-1.106,2.627
				c-0.36,0.916-0.69,1.849-1.107,2.741c-0.301,0.644-0.706,1.506-1.323,1.945c-0.06,0.005-0.119,0.007-0.179,0.012
				c-0.268,0.023-0.548,0.173-0.635,0.445c-0.076,0.238,0.066,0.462,0.324,0.463c2.768,0.006,5.579,0.212,8.186,1.214
				c2.382,0.915,4.48,2.465,5.895,4.599c2.564,3.868,3.077,8.866,3.067,13.394c-0.005,2.225-0.106,4.444-0.508,6.637
				c-0.413,2.25-1.104,4.454-2.007,6.554c-1.816,4.22-4.585,8.082-8.165,10.981c-3.521,2.85-7.962,4.887-12.539,5.083
				c-0.596,0.025-1.193,0.013-1.789,0.003c-0.345-0.005-1.108,0.532-0.794,0.937C247.147,132.904,249.564,132.389,251.938,131.786z"
				/>
			<path style="fill:#9F6553;" d="M266.456,50.47c-0.327-2.805-1.067-5.555-2.168-8.154c-2.271-5.362-5.951-10.035-10.333-13.839
				c-4.609-4.001-10.027-6.98-15.701-9.181c-2.859-1.109-5.803-2.055-8.787-2.767c-3.319-0.793-6.723-1.218-10.128-1.405
				c-6.812-0.375-13.628,0.19-20.423,0.619c-3.887,0.246-7.796,0.493-11.693,0.486c-3.594-0.007-7.319-0.186-10.771-1.27
				c-2.826-0.887-5.673-2.636-6.318-5.734c-0.173-0.832-0.176-1.67-0.083-2.512c0.055-0.497-0.695-0.217-0.798,0.079
				c-0.707,2.035-1.358,4.081-1.555,6.239c-0.117,1.285-0.078,2.647,0.284,3.9c-1.097-0.031-2.194-0.05-3.291-0.059
				c-16.607-0.136-32.346,5.583-43.656,18.174c-5.181,5.767-8.692,12.925-14.634,18.014c-2.633,2.255-5.54,4.271-8.654,5.802
				c-3.144,1.547-6.633,2.679-10.176,2.458c-0.829-0.052-1.632-0.204-2.441-0.384c-0.518-0.115-1.548,0.68-0.889,1.141
				c2.012,1.408,4.101,2.762,6.507,3.385c0.689,0.178,1.383,0.281,2.078,0.325c-0.556,0.509-1.091,1.027-1.604,1.537
				c-3.068,3.052-5.641,6.572-7.43,10.521c-1.028,2.27-1.765,4.665-2.118,7.133c-0.092,0.644,0.795,0.592,1.127,0.339
				c1.857-1.413,3.575-2.988,5.277-4.581c-1.698,2.482-3.088,5.168-4.061,8.06c-1.797,5.339-2.112,11.045-1.35,16.604
				c0.079,0.578,0.17,1.154,0.272,1.727c0.207,1.646,0.513,3.278,0.918,4.881c5.279,20.849,27.18,31.408,36.653,49.909
				c2.042,3.988,3.392,8.274,5.276,12.332c0.45,0.968,2.161,4.536,2.681,5.468c0.387,0.694,2.207-39.901,2.69-42.747
				c0.445-2.625,0.972-5.34,2.013-7.819c2.559,2.367,5.663,4.124,9.057,5.256c0.419,0.14,1.335-0.508,0.922-0.96
				c-2.695-2.956-6.12-8.282-2.48-11.815c1.666-1.618,4.069-2.348,6.298-2.753c2.462-0.447,4.981-0.502,7.476-0.42
				c12.091,0.397,23.827,3.861,35.897,4.434c11.323,0.538,23.217-1.876,32.15-9.234c9.051-7.455,12.375-18.92,16.846-29.289
				c1.14-2.643,2.364-5.279,3.861-7.742c1.218-2.004,2.991-3.993,5.229-4.851c2.294-0.879,4.869,0.207,6.122,2.272
				c1.097,1.807,1.218,4.252,0.664,6.257c-0.15,0.544-0.35,1.077-0.618,1.572c-0.271,0.241-0.546,0.477-0.822,0.711
				c-0.124-0.119-0.423-0.05-0.519,0.136c-0.141,0.274-0.67,0.753-0.034,0.912c0.26,0.065,0.548-0.158,0.762-0.276
				c0.281-0.155,0.55-0.307,0.812-0.492c1.062-0.748,2.028-1.613,2.917-2.56c1.769-1.887,3.213-4.051,4.366-6.362
				c2.361-4.735,3.666-9.93,4.28-15.169C266.678,56.009,266.78,53.244,266.456,50.47z"/>
		</g>
		<path style="fill:#483C36;" d="M140.995,59.765c-3.375,2.594-7.703,3.611-11.907,3.233c-4.163-0.374-8.224-2.071-11.339-4.866
			c-1.714-1.538-3.075-3.46-3.899-5.614c-0.161-0.421-0.824-0.166-0.906,0.193c-0.724,3.181-1.097,6.549-0.14,9.726
			c0.845,2.804,2.747,5.061,5.445,6.233c1.87,0.813,3.897,1.021,5.915,0.857c0.307-0.025,0.669-0.569,0.203-0.593
			c-3.055-0.158-6.317-0.81-8.5-3.127c-1.931-2.05-2.689-4.884-2.732-7.644c-0.02-1.314,0.1-2.631,0.349-3.922
			c1.659,3.483,4.65,6.145,8.157,7.764c3.998,1.846,8.664,2.361,12.955,1.331c2.42-0.581,4.688-1.687,6.602-3.282
			C141.427,59.866,141.24,59.576,140.995,59.765z"/>
		<path style="fill:#483C36;" d="M105.592,133.725c-5.393-3.668-8.473-9.951-9.97-16.132c-1.632-6.741-1.599-14.063,1.027-20.554
			c0.884-2.184,2.012-4.341,3.491-6.185c1.454-1.813,3.251-3.334,4.536-5.285c0.084-0.127-0.111-0.14-0.177-0.051
			c-1.332,1.805-3.116,3.201-4.601,4.87c-1.42,1.596-2.583,3.452-3.528,5.363c-1.699,3.44-2.609,7.336-2.823,11.158
			c-0.184,3.288,0.107,6.614,0.765,9.839c0.689,3.374,1.795,6.724,3.467,9.743c1.752,3.162,4.119,6.008,7.356,7.712
			C105.399,134.341,105.892,133.929,105.592,133.725z"/>
		<path style="fill:#483C36;" d="M125.028,156.236c-1.909-1.872-3.854-3.706-5.711-5.63c-1.992-2.064-3.878-4.236-5.631-6.508
			c-3.494-4.527-6.429-9.54-8.133-15.022c-0.919-2.955-1.406-6.035-1.3-9.133c0.008-0.227-0.351-0.101-0.364,0.077
			c-0.409,5.662,1.114,11.22,3.63,16.255c2.619,5.241,6.187,9.982,10.192,14.24c2.113,2.246,4.351,4.393,6.831,6.231
			C124.812,156.947,125.294,156.497,125.028,156.236z"/>
		<path style="fill:#483C36;" d="M301.999,100.541c-1.654-0.446-3.258-1.212-4.591-2.292c-1.38-1.118-2.505-2.519-3.439-4.022
			c-2.088-3.362-3.406-7.134-4.618-10.881c-1.126-3.482-2.079-7.077-3.646-10.395c-1.885-3.992-5.117-7.423-9.298-9.001
			c-4.209-1.589-8.872-1.123-12.733,1.161c-0.541,0.32-1.061,0.671-1.567,1.043c-0.204,0.15-0.112,0.472,0.146,0.311
			c3.793-2.366,8.499-3.295,12.811-1.892c4.285,1.394,7.633,4.725,9.574,8.733c1.562,3.225,2.489,6.744,3.565,10.149
			c1.174,3.715,2.414,7.481,4.388,10.861c1.261,2.159,2.971,4.281,5.137,5.623c-2.048-0.25-4.049-0.706-5.971-1.581
			c-2.73-1.243-5.19-3.175-6.81-5.721c-0.977-1.535-1.621-3.24-1.968-5.023c-0.027-0.138-0.228-0.021-0.211,0.089
			c0.48,3.161,1.895,6.111,4.156,8.385c2.216,2.23,5.097,3.661,8.13,4.41c1.697,0.419,3.419,0.635,5.161,0.542
			c0.029,0.008,0.057,0.019,0.087,0.026c0.427,0.113,0.862,0.192,1.299,0.252C301.943,101.367,302.431,100.658,301.999,100.541z"/>
		<path style="fill:#483C36;" d="M287.476,108.383c-0.026-0.085-0.166-0.008-0.151,0.066c1.066,5.35,0.113,10.869-2.776,15.504
			c-2.766,4.439-6.947,7.935-11.365,10.652c-2.545,1.565-5.165,2.887-7.914,4.054c-0.152,0.065-0.193,0.362,0.025,0.292
			c5.192-1.66,10.211-4.341,14.334-7.917c4.01-3.478,7.367-8.025,8.424-13.312C288.68,114.587,288.414,111.429,287.476,108.383z"/>
		<path style="opacity:0.6;fill:#9F6553;" d="M264.289,42.315c-1.724-4.07-4.261-7.742-7.299-10.939
			c-2.431-1.201-4.978-2.171-7.551-3.009c-4.225-1.376-8.538-2.419-12.962-2.903c-9.609-1.053-19.079,0.673-27.869,4.526
			c2.392-0.329,4.778-0.694,7.174-0.99c6.644-0.822,13.554-1.395,20.182-0.142c5.822,1.101,11.286,4.096,12.946,10.154
			c0.061,0.222-0.148,0.424-0.368,0.368c-6.458-1.66-13.16-0.18-19.135,2.485c-5.393,2.406-10.358,5.737-14.956,9.421
			c-3.798,3.042-7.345,6.386-11.057,9.531c-4.011,3.398-8.193,6.685-12.803,9.238c-0.852,0.472-1.733,0.924-2.633,1.34
			c14.04-3.755,25.751-13.322,39.376-18.243c2.674-0.966,5.466-1.795,8.314-2.015c2.111-0.163,4.54,0.026,6.158,1.557
			c2.06,1.95,1.827,5.191,1.448,7.744c-0.641,4.31-2.459,8.397-4.642,12.135c-2.24,3.836-4.942,7.403-7.873,10.736
			c-2.879,3.273-5.978,6.399-9.377,9.133c-6.982,5.615-15.178,9.587-23.884,11.687c-8.13,1.961-16.36,2.126-24.656,1.431
			c-5.208-0.436-10.412-0.895-15.642-0.921c-9.144-0.045-25.659,0.845-25.553,13.428c0.003,0.356-0.476,0.382-0.587,0.079
			c-1.236-3.357-1.477-6.986-1.035-10.519c0.85-6.796,3.965-13.275,8.156-18.636c3.415-4.368,7.823-8.326,13.012-10.452
			c-4.144,0.647-8.148,2.081-11.79,4.176c-7.828,4.501-14.001,12.046-16.034,20.928c-1.002,4.374-0.688,8.752,0.513,13.057
			c1.172,4.198,3.117,8.524,6.382,11.514c0.088,0.081,0.124,0.263,0.047,0.362c-5.752,7.452-4.129,17.772-3.843,26.519
			c0.007,0.226-0.26,0.373-0.45,0.258c-3.599-2.188-6.839-4.927-9.606-8.102c-9.45-10.844-13.387-26.163-10.892-40.273
			c-2.453,2.438-3.528,5.988-3.906,9.363c-0.409,3.651-0.124,7.469,1.021,10.97c0.114,0.35-0.36,0.48-0.546,0.23
			c-2.023-2.708-3.898-5.558-5.022-8.768c-2.065-5.898-1.311-12.311,0.986-18.02c2.159-5.367,5.437-10.186,7.825-15.445
			c-2.592,1.34-4.884,3.175-6.806,5.378c-7.377,8.456-9.858,22.064-5.271,32.411c0.114,0.257-0.13,0.572-0.409,0.409
			c-2.624-1.539-4.715-3.797-6.318-6.364c-2.218-3.552-3.584-7.599-4.386-11.733c0.079,0.577,0.17,1.151,0.271,1.723
			c0.207,1.646,0.513,3.278,0.918,4.881c5.279,20.849,27.18,31.408,36.653,49.909c2.042,3.988,3.392,8.274,5.276,12.332
			c0.45,0.968,2.161,4.536,2.681,5.468c0.387,0.694,2.207-39.901,2.69-42.747c0.445-2.625,0.972-5.34,2.013-7.819
			c2.559,2.367,5.663,4.124,9.057,5.256c0.419,0.14,1.335-0.508,0.922-0.96c-2.695-2.957-6.12-8.282-2.48-11.815
			c1.666-1.618,4.069-2.348,6.298-2.753c2.462-0.447,4.981-0.502,7.476-0.42c12.091,0.397,23.827,3.861,35.897,4.434
			c11.323,0.538,23.217-1.876,32.15-9.234c9.051-7.455,12.375-18.92,16.846-29.289c1.14-2.643,2.364-5.279,3.861-7.742
			c1.218-2.004,2.991-3.993,5.229-4.851c2.294-0.879,4.869,0.207,6.122,2.272c1.097,1.808,1.218,4.252,0.664,6.257
			c-0.15,0.544-0.35,1.077-0.618,1.572c-0.271,0.241-0.546,0.477-0.822,0.711c-0.124-0.119-0.423-0.05-0.519,0.136
			c-0.141,0.274-0.67,0.753-0.034,0.912c0.26,0.065,0.548-0.158,0.762-0.276c0.281-0.155,0.55-0.307,0.812-0.492
			c1.062-0.748,2.028-1.613,2.917-2.56c1.769-1.887,3.213-4.051,4.366-6.363c2.361-4.735,3.666-9.93,4.279-15.169
			c0.324-2.768,0.426-5.533,0.102-8.307C266.129,47.665,265.39,44.915,264.289,42.315z"/>
		<path style="fill:#483C36;" d="M251.82,46.515c-3.331-2.333-7.248-3.523-11.31-3.506c-4.121,0.017-8.165,1.144-11.955,2.693
			c-7.555,3.088-14.32,7.771-20.95,12.457c-6.585,4.653-13.243,9.384-20.788,12.37c-3.703,1.465-7.68,2.634-11.679,2.808
			c-2.004,0.087-4.054-0.087-5.953-0.767c-1.801-0.645-3.167-1.876-4.346-3.349c-0.564-0.705-1.077-1.448-1.62-2.17
			c-0.249-0.332-0.884,0.127-0.689,0.483c1.1,2.007,1.761,4.198,2.71,6.272c0.983,2.148,2.372,3.916,4.258,5.345
			c3.836,2.906,8.581,4.259,13.368,4.114c2.751-0.083,5.428-0.657,8.025-1.552c0.365-0.126,0.426-0.797-0.057-0.654
			c-4.455,1.321-9.277,1.861-13.827,0.697c-2.266-0.58-4.407-1.56-6.327-2.897c-1.931-1.345-3.433-2.993-4.483-5.105
			c-0.521-1.048-0.951-2.135-1.388-3.219c0.337,0.396,0.69,0.777,1.075,1.129c1.397,1.276,3.172,1.99,5.014,2.342
			c3.866,0.738,7.948,0.003,11.683-1.059c7.775-2.209,14.68-6.386,21.282-10.946c6.613-4.567,13.041-9.41,20.212-13.092
			c7.105-3.648,15.49-6.515,23.31-3.357c3.53,1.426,6.558,3.984,8.873,6.976c2.253,2.914,3.819,6.51,3.712,10.247
			c-0.027,0.956-0.165,1.904-0.401,2.83c-0.042,0.167,0.201,0.125,0.24,0.004C262.193,58.284,257.748,50.668,251.82,46.515z"/>
		<path style="fill:#483C36;" d="M253.502,37.098c-0.588-1.093-1.38-2.081-2.27-2.943c-1.924-1.864-4.259-3.283-6.66-4.445
			c-6.074-2.942-12.793-4.169-19.514-4.193c-7.728-0.027-15.36,1.481-22.935,2.847c-3.864,0.697-7.706,1.482-11.549,2.279
			c-3.614,0.749-7.277,1.404-10.976,1.488c-5.091,0.115-11.789-0.94-13.511-6.596c-0.205-0.674-0.422-1.353-0.47-2.059
			c-0.019-0.273-0.391-0.143-0.451,0.045c-0.72,2.284-1.25,4.736-0.812,7.129c0.446,2.438,1.891,4.556,3.746,6.152
			c0.169,0.146,0.575-0.174,0.411-0.353c-1.597-1.743-3.1-3.61-3.604-5.976c-0.4-1.882-0.158-3.793,0.321-5.634
			c0.021,0.254,0.049,0.507,0.103,0.755c0.134,0.614,0.334,1.211,0.594,1.783c0.489,1.072,1.2,2.014,2.085,2.791
			c1.906,1.672,4.42,2.394,6.884,2.721c7.401,0.982,14.852-1.249,22.048-2.664c3.95-0.777,7.914-1.476,11.88-2.162
			c3.805-0.658,7.612-1.266,11.469-1.524c7.232-0.485,14.587,0.184,21.375,2.851c4.676,1.837,9.815,4.656,11.928,9.463
			c0.243,0.554,0.385,1.125,0.465,1.724c0.027,0.201,0.402,0.043,0.388-0.126C254.349,39.272,254.063,38.139,253.502,37.098z"/>
		<path style="fill:#483C36;" d="M152.759,78.924c-1.196,0.207-2.395,0.401-3.575,0.689c-1.194,0.291-2.365,0.679-3.525,1.086
			c-2.374,0.833-4.681,1.839-6.889,3.046c-4.372,2.389-8.37,5.512-11.364,9.524c-2.929,3.924-4.795,8.749-4.971,13.664
			c-0.172,4.79,1.073,9.628,3.256,13.874c2.146,4.174,5.389,8.029,9.739,9.986c0.522,0.235,1.056,0.44,1.599,0.62
			c0.321,0.106,0.769-0.43,0.371-0.595c-4.218-1.741-7.58-5.209-9.877-9.085c-2.371-4.002-3.81-8.677-3.961-13.335
			c-0.153-4.717,1.251-9.38,3.786-13.346c2.578-4.032,6.267-7.225,10.342-9.681c4.161-2.508,8.705-4.111,13.297-5.624
			c0.58-0.191,1.163-0.369,1.753-0.53C152.91,79.171,153.001,78.882,152.759,78.924z"/>
	</g>
	<g style="opacity:0.47;">
		<path style="fill:#E14A31;" d="M227.768,188.758c-0.017-0.051-0.049-0.091-0.096-0.121c-0.046-0.033-0.098-0.05-0.153-0.053
			c-0.059-0.013-0.119-0.012-0.179,0.004c-0.042,0.014-0.084,0.027-0.126,0.041c-0.088,0.039-0.165,0.093-0.231,0.162
			c-0.027,0.035-0.054,0.07-0.081,0.105c-0.044,0.068-0.069,0.142-0.076,0.223v0.147c-0.007,0.056,0.003,0.107,0.031,0.154
			c0.016,0.051,0.049,0.091,0.096,0.121c0.047,0.033,0.098,0.05,0.153,0.053c0.059,0.013,0.119,0.012,0.179-0.004
			c0.042-0.014,0.084-0.027,0.126-0.041c0.088-0.039,0.165-0.093,0.231-0.162c0.027-0.035,0.054-0.07,0.081-0.105
			c0.044-0.068,0.069-0.142,0.076-0.223v-0.147C227.806,188.856,227.796,188.804,227.768,188.758z"/>
		<path style="fill:#E14A31;" d="M232.609,187.566c-0.47,0-0.909,0.835-0.286,0.835
			C232.793,188.401,233.232,187.566,232.609,187.566z"/>
		<path style="fill:#E14A31;" d="M238.255,187.22c-0.008-0.069-0.021-0.136-0.042-0.203c-0.008-0.025-0.02-0.049-0.032-0.072
			c-0.011-0.069-0.036-0.136-0.099-0.175c-0.091-0.056-0.186-0.055-0.289-0.043c-0.117-0.006-0.236,0.005-0.334,0.059
			c-0.049,0.026-0.092,0.054-0.137,0.081c-0.193,0.089-0.371,0.212-0.513,0.365c-0.261,0.283-0.408,0.646-0.437,1.028
			c-0.007,0.099,0.028,0.191,0.098,0.259c0.076,0.075,0.163,0.097,0.269,0.107c0.154,0.013,0.306,0.005,0.459-0.018
			c0.19-0.029,0.359-0.108,0.522-0.205c0.079-0.047,0.151-0.112,0.217-0.175c0.065-0.062,0.122-0.137,0.169-0.213
			c0.092-0.152,0.147-0.32,0.163-0.497C238.278,187.42,238.266,187.318,238.255,187.22z"/>
		<path style="fill:#E14A31;" d="M246.102,189.225c-0.012-0.061-0.042-0.109-0.089-0.146c-0.038-0.047-0.087-0.077-0.148-0.09
			c-0.015-0.006-0.031-0.012-0.046-0.018c-0.035-0.005-0.07-0.01-0.105-0.015c-0.06-0.002-0.118,0.008-0.173,0.03
			c-0.042,0.009-0.081,0.026-0.116,0.051c-0.06,0.029-0.113,0.068-0.158,0.118l-0.058,0.053c-0.03,0.039-0.06,0.077-0.09,0.116
			c-0.039,0.056-0.063,0.118-0.072,0.185c-0.014,0.04-0.017,0.08-0.008,0.121c-0.003,0.04,0.007,0.078,0.029,0.111
			c0.018,0.057,0.054,0.101,0.107,0.134l0.107,0.05l0.125,0.018c0.072,0.003,0.14-0.009,0.206-0.036
			c0.05-0.011,0.096-0.031,0.138-0.061c0.048-0.021,0.091-0.051,0.128-0.09c0.061-0.045,0.111-0.101,0.15-0.167
			c0.02-0.041,0.039-0.082,0.059-0.123c0.008-0.041,0.017-0.082,0.026-0.124C246.109,189.303,246.105,189.264,246.102,189.225z"/>
		<path style="fill:#E14A31;" d="M248.544,192.041c-0.571,0-1.106,1.016-0.348,1.016
			C248.768,193.057,249.303,192.041,248.544,192.041z"/>
		<path style="fill:#E14A31;" d="M238.989,194.582c-0.008-0.07-0.024-0.139-0.049-0.204c-0.077-0.202-0.189-0.381-0.378-0.498
			c-0.228-0.142-0.497-0.184-0.76-0.137c-0.075,0.014-0.151,0.038-0.225,0.069c-0.248,0.073-0.455,0.237-0.612,0.451
			c-0.153,0.209-0.237,0.471-0.27,0.726c-0.032,0.255,0.018,0.508,0.147,0.729c0.152,0.259,0.426,0.38,0.712,0.411
			c0.152,0.017,0.316-0.003,0.464-0.045c0.321-0.091,0.579-0.28,0.767-0.555c0.123-0.18,0.191-0.403,0.214-0.618
			C239.012,194.802,239.001,194.691,238.989,194.582z"/>
		<path style="fill:#E14A31;" d="M212.072,187.674c-0.002-0.005-0.006-0.008-0.008-0.013c-0.032-0.078-0.041-0.163-0.06-0.244
			c0.029-0.072,0.04-0.149,0.019-0.228c-0.027-0.103-0.099-0.161-0.185-0.193c-0.007-0.017-0.014-0.035-0.022-0.052
			c-0.037-0.088-0.076-0.175-0.116-0.262c-0.044-0.06-0.102-0.1-0.173-0.12c-0.079-0.021-0.158-0.022-0.238-0.004
			c-0.178,0.036-0.349,0.155-0.444,0.311c-0.134,0.22-0.255,0.446-0.348,0.687c-0.054,0.139-0.022,0.313,0.108,0.4
			c0.036,0.024,0.074,0.047,0.113,0.066c0.058,0.028,0.117,0.06,0.18,0.073c0.151,0.032,0.294,0.014,0.437-0.038
			c0.001,0.001,0.002,0.002,0.003,0.003c0.064,0.067,0.105,0.105,0.202,0.12c0.186,0.027,0.384-0.084,0.482-0.243
			C212.064,187.866,212.102,187.758,212.072,187.674z"/>
		<path style="fill:#E14A31;" d="M213.189,182.798c-0.533,0-1.031,0.947-0.324,0.947
			C213.398,183.745,213.896,182.798,213.189,182.798z"/>
		<path style="fill:#E14A31;" d="M217.561,194.366c-0.006-0.046-0.012-0.093-0.019-0.139c-0.013-0.062-0.043-0.111-0.091-0.148
			c-0.039-0.047-0.089-0.078-0.151-0.092c-0.042-0.006-0.085-0.012-0.127-0.019c-0.073-0.003-0.143,0.01-0.209,0.037
			c-0.051,0.011-0.098,0.032-0.141,0.062c-0.073,0.035-0.136,0.083-0.191,0.143c-0.031,0.039-0.061,0.079-0.092,0.118
			c-0.049,0.077-0.078,0.161-0.086,0.251l-0.019,0.151c-0.007,0.085,0.014,0.164,0.061,0.235c0.029,0.029,0.058,0.057,0.087,0.085
			c0.074,0.048,0.156,0.071,0.244,0.072c0.075,0.003,0.148-0.01,0.217-0.038c0.079-0.02,0.152-0.055,0.218-0.105
			c0.069-0.045,0.127-0.101,0.173-0.169c0.05-0.055,0.087-0.119,0.11-0.191C217.575,194.537,217.58,194.453,217.561,194.366z"/>
		<path style="fill:#E14A31;" d="M253.427,190.647c0-0.009-0.008-0.106-0.01-0.115c0-0.001,0-0.002-0.001-0.004
			c0-0.001-0.001-0.002-0.001-0.004c0-0.001-0.001-0.002-0.001-0.002c-0.001-0.001-0.045-0.098-0.045-0.099c0,0,0-0.001-0.001-0.001
			c-0.002-0.003-0.004-0.006-0.006-0.009c-0.024-0.03-0.053-0.056-0.082-0.081c-0.045-0.031-0.094-0.048-0.147-0.051
			c-0.022-0.005-0.044,0.002-0.066,0.001c-0.008-0.001-0.015-0.003-0.023-0.003c-0.016,0.002-0.033,0.003-0.049,0.005
			c-0.011,0.002-0.022-0.002-0.034,0.001c-0.004,0.001-0.008,0.003-0.012,0.004c-0.014,0.001-0.029,0.003-0.044,0.004
			c-0.005,0.002-0.011,0.004-0.016,0.005c-0.009,0.003-0.019,0.005-0.029,0.006c0.005-0.001,0.01-0.001,0.016-0.001
			c-0.006,0.002-0.011,0.004-0.017,0.005c-0.037,0.006-0.076,0.005-0.112,0.02c-0.076,0.019-0.145,0.053-0.208,0.101
			c-0.04,0.034-0.08,0.069-0.12,0.103c-0.053,0.052-0.094,0.111-0.121,0.179c-0.024,0.038-0.039,0.08-0.043,0.124
			c-0.019,0.059-0.019,0.12-0.003,0.181c0.016,0.035,0.032,0.071,0.049,0.106c0.048,0.066,0.112,0.11,0.191,0.132
			c0.046,0.007,0.091,0.014,0.137,0.02c0.004,0.001,0.009,0.001,0.013,0.001c0.008,0.001,0.015,0.001,0.023,0
			c0.004,0,0.007,0,0.011-0.001c0.047-0.004,0.095-0.008,0.142-0.014c0.002,0,0.004-0.001,0.005-0.001
			c0.003,0,0.006-0.001,0.01-0.002c0.001,0,0.003-0.001,0.004-0.001c0.001,0,0.001,0,0.002-0.001
			c0.024-0.008,0.048-0.015,0.073-0.023c0.024-0.008,0.048-0.015,0.072-0.023c0.002-0.001,0.138-0.077,0.14-0.079
			c0.001-0.001,0.121-0.104,0.122-0.104c0.001-0.001,0.091-0.117,0.092-0.118c0.001-0.002,0.06-0.124,0.06-0.126
			c0.001-0.001,0.001-0.003,0.001-0.004c0-0.001,0-0.002,0.001-0.002c0.001-0.005,0.025-0.118,0.026-0.124c0-0.001,0-0.003,0-0.004
			C253.427,190.648,253.427,190.648,253.427,190.647z"/>
		<g>
			<path style="fill:#E14A31;" d="M256.981,183.489c-0.02-0.075-0.062-0.135-0.126-0.18c-0.044-0.041-0.086-0.084-0.133-0.122
				c-0.01-0.008-0.021-0.017-0.032-0.024c-0.004-0.003-0.008-0.005-0.013-0.008c-0.025-0.014-0.112-0.047-0.128-0.055
				c-0.076-0.021-0.108-0.016-0.183-0.009c-0.106,0.011-0.077,0.003-0.214,0.054c-0.002,0.001-0.003,0.001-0.005,0.002
				c-0.099,0.045-0.189,0.105-0.264,0.185c-0.034,0.036-0.066,0.075-0.092,0.118c-0.04,0.066-0.085,0.168-0.085,0.248
				c0,0.002,0.01,0.116,0.01,0.118c0.008,0.037,0.026,0.074,0.048,0.105c0.001,0.001,0.003,0.002,0.004,0.003
				c0,0.001,0.001,0.001,0.001,0.001l0-0.001c0.002,0.003,0.005,0.004,0.007,0.007c0.02,0.031,0.045,0.06,0.08,0.081
				c0.036,0.02,0.073,0.037,0.111,0.051c0.003,0.001,0.006,0.001,0.009,0.002c0.007,0.002,0.014,0.005,0.022,0.007
				c0.001,0,0.002,0.001,0.003,0.001c0.02,0.01,0.04,0.02,0.06,0.03c0.008,0.004,0.017,0.008,0.025,0.012
				c0.05,0.035,0.104,0.054,0.164,0.057c0.063,0.014,0.127,0.013,0.191-0.004c0.073-0.014,0.14-0.041,0.201-0.081
				c0.069-0.033,0.129-0.078,0.181-0.136c0.029-0.037,0.058-0.075,0.087-0.112c0.047-0.073,0.074-0.152,0.082-0.238
				C256.987,183.565,256.984,183.527,256.981,183.489z"/>
			<path style="fill:#E14A31;" d="M256.55,183.1c0.006,0.002,0.009,0.001,0.016,0.003C256.547,183.097,256.544,183.097,256.55,183.1
				z"/>
		</g>
		<path style="fill:#E14A31;" d="M251.492,182.897c-0.049-0.061-0.131-0.108-0.212-0.1c-0.056,0.005-0.112,0.011-0.168,0.017
			c-0.031,0.003-0.063,0.006-0.095,0.008c-0.011-0.076-0.041-0.153-0.106-0.193c-0.091-0.056-0.203-0.07-0.306-0.045
			c-0.122,0.029-0.247,0.091-0.329,0.187c-0.077,0.089-0.142,0.176-0.182,0.288c-0.012,0.034-0.02,0.079-0.023,0.115
			c-0.001,0.015,0.002,0.075,0.011,0.108c0.004,0.014,0.024,0.054,0.021,0.047c-0.008-0.017,0.013,0.035,0.021,0.046
			c0.019,0.027,0.055,0.061,0.073,0.074c0.004,0.003,0.008,0.006,0.012,0.008c0.02,0.013,0.065,0.032,0.087,0.04
			c0.003,0.001,0.005,0.002,0.008,0.003c0.042,0.012,0.086,0.017,0.13,0.02c0.04,0.002,0.08-0.007,0.12-0.012
			c0.199,0.002,0.398-0.037,0.594-0.065c0.051-0.01,0.097-0.028,0.14-0.056c0.048-0.023,0.09-0.055,0.126-0.095
			c0.053-0.059,0.093-0.124,0.109-0.202C251.536,183.027,251.535,182.951,251.492,182.897z"/>
		<path style="fill:#E14A31;" d="M249.111,199.469c-0.499,0-0.966,0.887-0.304,0.887
			C249.306,200.356,249.773,199.469,249.111,199.469z"/>
		<path style="fill:#E14A31;" d="M243.209,201.565c-0.46,0-0.891,0.818-0.28,0.818C243.389,202.383,243.82,201.565,243.209,201.565z
			"/>
		<path style="fill:#E14A31;" d="M233.054,199.044c-0.479,0-0.928,0.852-0.292,0.852
			C233.241,199.897,233.69,199.044,233.054,199.044z"/>
		<path style="fill:#E14A31;" d="M236.157,194.589c-0.026-0.025-0.051-0.051-0.077-0.076c-0.066-0.042-0.139-0.064-0.218-0.064
			c-0.042,0.004-0.085,0.008-0.127,0.013c-0.094,0.021-0.181,0.059-0.259,0.115c-0.058,0.048-0.125,0.098-0.173,0.159
			c-0.032,0.04-0.064,0.079-0.094,0.121c-0.004,0.006-0.008,0.013-0.012,0.019c-0.028,0.047-0.05,0.098-0.072,0.148
			c-0.026,0.058-0.036,0.129-0.047,0.188c-0.005,0.03-0.007,0.061-0.005,0.092c-0.007,0.056,0.003,0.107,0.031,0.154
			c0.017,0.051,0.049,0.091,0.096,0.121c0.047,0.033,0.098,0.05,0.153,0.053c0.059,0.013,0.119,0.012,0.179-0.004
			c0.042-0.014,0.084-0.027,0.126-0.041c0.088-0.039,0.165-0.093,0.231-0.162c0.027-0.035,0.054-0.07,0.081-0.105
			c0.036-0.057,0.057-0.119,0.068-0.184c0.017-0.018,0.039-0.031,0.053-0.052c0.045-0.049,0.077-0.106,0.098-0.17
			c0.023-0.056,0.029-0.113,0.019-0.171C236.209,194.687,236.192,194.635,236.157,194.589z"/>
		<path style="fill:#E14A31;" d="M225.861,195.733c-0.018-0.068-0.056-0.123-0.114-0.163c-0.031-0.015-0.063-0.029-0.094-0.044
			c-0.034-0.009-0.069-0.013-0.103-0.014c-0.001-0.038-0.002-0.076-0.022-0.109c-0.015-0.048-0.045-0.085-0.09-0.113
			c-0.03-0.014-0.06-0.028-0.09-0.042c-0.054-0.016-0.108-0.02-0.162-0.01c-0.04,0-0.079,0.008-0.116,0.025
			c-0.063,0.016-0.121,0.044-0.174,0.084l-0.1,0.086c-0.056,0.058-0.098,0.125-0.125,0.201c-0.017,0.076-0.038,0.158-0.038,0.238
			c0,0.052,0.005,0.104,0.013,0.155c0.003,0.016,0.007,0.032,0.013,0.047c0.015,0.037,0.031,0.074,0.05,0.11
			c0.004,0.007,0.007,0.013,0.012,0.019c0.018,0.024,0.068,0.076,0.107,0.097c0.003,0.002,0.006,0.003,0.009,0.005
			c0.033,0.016,0.068,0.033,0.102,0.047c0.007,0.003,0.015,0.005,0.022,0.007c0.025,0.007,0.052,0.009,0.077,0.012
			c0.026,0.004,0.053,0.009,0.08,0.01c0.01,0,0.02,0,0.03,0c0.05-0.003,0.1-0.008,0.15-0.015c0.025-0.003,0.049-0.009,0.074-0.016
			c0.066-0.012,0.127-0.037,0.182-0.074c0.063-0.03,0.117-0.071,0.164-0.123c0.046-0.045,0.081-0.096,0.105-0.156
			c0.029-0.05,0.045-0.104,0.048-0.162C225.867,195.802,225.864,195.767,225.861,195.733z"/>
		<path style="fill:#E14A31;" d="M222.399,197.238c-0.019-0.09-0.038-0.18-0.056-0.27c-0.008-0.038-0.027-0.069-0.056-0.092
			c-0.024-0.029-0.055-0.048-0.093-0.057c-0.026-0.004-0.052-0.008-0.079-0.011c-0.045-0.002-0.088,0.006-0.129,0.023
			c-0.031,0.007-0.061,0.02-0.087,0.038c-0.045,0.022-0.084,0.051-0.118,0.088c-0.019,0.024-0.038,0.049-0.057,0.073
			c-0.03,0.047-0.048,0.099-0.053,0.155c-0.019,0.102-0.038,0.204-0.057,0.307c-0.005,0.06,0.01,0.114,0.043,0.164
			c0.02,0.02,0.04,0.04,0.061,0.059c0.052,0.033,0.109,0.05,0.17,0.05c0.053,0.002,0.103-0.007,0.151-0.027
			c0.055-0.014,0.106-0.038,0.152-0.073c0.048-0.031,0.089-0.071,0.121-0.118c0.035-0.038,0.06-0.083,0.076-0.133
			C222.409,197.358,222.413,197.298,222.399,197.238z"/>
		<path style="fill:#E14A31;" d="M219.601,194.882c-0.009-0.044-0.031-0.08-0.066-0.107c-0.028-0.034-0.064-0.056-0.109-0.066
			l-0.127-0.033c-0.07-0.018-0.14-0.02-0.21-0.004c-0.081,0.018-0.155,0.051-0.223,0.098c-0.032,0.028-0.064,0.055-0.096,0.082
			c-0.054,0.056-0.094,0.12-0.12,0.193c-0.02,0.048-0.025,0.097-0.016,0.147c-0.001,0.048,0.013,0.092,0.043,0.132
			c0.08,0.114,0.235,0.138,0.363,0.109l0.149-0.033c0.034-0.011,0.068-0.022,0.103-0.033c0.055-0.022,0.103-0.054,0.144-0.094
			c0.031-0.022,0.057-0.048,0.077-0.08c0.035-0.038,0.06-0.083,0.077-0.133c0.006-0.03,0.012-0.061,0.019-0.091
			C219.606,194.94,219.604,194.911,219.601,194.882z"/>
		<path style="fill:#E14A31;" d="M244.671,203.953c-0.04-0.061-0.094-0.104-0.162-0.126c-0.065-0.037-0.135-0.055-0.212-0.051
			c-0.114,0-0.223,0.023-0.328,0.07c-0.109,0.048-0.215,0.119-0.299,0.206c-0.01,0.007-0.022,0.008-0.031,0.015
			c-0.041,0.035-0.082,0.07-0.123,0.105c-0.031,0.04-0.062,0.079-0.093,0.119c-0.04,0.058-0.065,0.121-0.074,0.19
			c-0.019,0.061-0.02,0.122-0.003,0.185c0.008,0.032,0.015,0.064,0.02,0.097c0.003,0.019,0.004,0.038,0.007,0.057
			c0.001,0.006,0.002,0.012,0.005,0.018c0,0.001,0.001,0.003,0.002,0.005c0.009,0.023,0.04,0.092,0.052,0.114
			c0.001,0.003,0.003,0.005,0.005,0.008c0.002,0.003,0.004,0.005,0.006,0.007c0.001,0.002,0.003,0.003,0.004,0.004
			c0.026,0.028,0.063,0.064,0.091,0.089c0.007,0.006,0.014,0.012,0.021,0.018c0.03,0.023,0.063,0.044,0.094,0.065
			c0.164,0.11,0.381,0.085,0.553,0.01c0.106-0.047,0.199-0.112,0.279-0.195c0.073-0.075,0.127-0.162,0.163-0.26
			c0.012-0.039,0.024-0.079,0.038-0.118c0.024-0.067,0.036-0.138,0.048-0.207c0.009-0.052,0.005-0.106,0.007-0.159
			C244.747,204.121,244.724,204.033,244.671,203.953z"/>
		<path style="fill:#E14A31;" d="M257.23,188.546c-0.019-0.046-0.039-0.095-0.063-0.138c-0.004-0.007-0.008-0.013-0.013-0.019
			c-0.032-0.039-0.072-0.074-0.109-0.109c-0.006-0.005-0.011-0.01-0.017-0.015c-0.013-0.01-0.026-0.018-0.041-0.025
			c-0.053-0.027-0.111-0.059-0.171-0.074c-0.064-0.016-0.131-0.024-0.197-0.029c-0.022-0.001-0.044-0.001-0.065,0.001
			c-0.076,0.006-0.154,0.01-0.228,0.027c-0.012,0.003-0.025,0.006-0.037,0.01c-0.007,0.002-0.013,0.004-0.019,0.006
			c-0.039,0.012-0.13,0.038-0.168,0.054c-0.002,0.001-0.004,0.002-0.006,0.003c-0.054,0.03-0.107,0.061-0.161,0.091
			c-0.013,0.009-0.025,0.018-0.037,0.028c-0.006,0.005-0.012,0.009-0.018,0.014c-0.007,0.005-0.02,0.017-0.031,0.025
			c-0.012,0.008-0.026,0.013-0.038,0.02c-0.089,0.056-0.163,0.148-0.222,0.233c-0.035,0.05-0.063,0.109-0.081,0.167
			c-0.014,0.044-0.022,0.092-0.03,0.137c-0.002,0.013-0.003,0.026-0.003,0.039c0.001,0.135,0.031,0.236,0.1,0.353
			c0.019,0.032,0.042,0.062,0.067,0.09c0.048,0.053,0.098,0.105,0.154,0.148c0.066,0.051,0.147,0.088,0.224,0.116
			c0.017,0.006,0.034,0.011,0.052,0.014c0.057,0.01,0.119,0.024,0.178,0.022c0.055-0.002,0.111-0.008,0.164-0.016
			c0.008-0.001,0.016-0.002,0.023-0.004c0.056-0.013,0.112-0.034,0.167-0.053c0.008-0.003,0.016-0.006,0.023-0.009
			c0.006-0.003,0.012-0.006,0.019-0.01c0.055-0.029,0.112-0.058,0.164-0.094c0.006-0.004,0.012-0.009,0.018-0.014
			c0.049-0.039,0.099-0.081,0.145-0.125c0.049-0.047,0.089-0.106,0.128-0.16c0.009-0.012,0.018-0.025,0.025-0.038
			c0.031-0.057,0.061-0.117,0.084-0.177c0.006-0.015,0.01-0.03,0.014-0.046c0.018-0.071,0.04-0.152,0.037-0.228
			C257.258,188.695,257.258,188.614,257.23,188.546z"/>
		<path style="fill:#E14A31;" d="M242.967,184.699l-0.083-0.082c-0.071-0.046-0.149-0.068-0.234-0.068
			c-0.072-0.003-0.141,0.009-0.207,0.036c-0.075,0.019-0.145,0.053-0.208,0.1c-0.066,0.043-0.121,0.097-0.165,0.161
			c-0.048,0.053-0.083,0.113-0.105,0.182c-0.009,0.041-0.017,0.083-0.026,0.124c-0.006,0.081,0.013,0.156,0.059,0.224l0.083,0.082
			c0.071,0.046,0.149,0.068,0.234,0.068c0.072,0.003,0.141-0.009,0.207-0.036c0.076-0.019,0.145-0.053,0.208-0.1
			c0.066-0.043,0.121-0.097,0.165-0.161c0.048-0.053,0.083-0.114,0.105-0.182c0.008-0.041,0.017-0.083,0.026-0.124
			C243.033,184.842,243.013,184.767,242.967,184.699z"/>
		<path style="fill:#E14A31;" d="M219.662,187.962c-0.002-0.019-0.006-0.037-0.011-0.055c-0.016-0.055-0.043-0.108-0.068-0.158
			c-0.008-0.015-0.016-0.03-0.027-0.043c-0.035-0.044-0.077-0.085-0.121-0.12c-0.045-0.036-0.105-0.057-0.156-0.079
			c-0.017-0.007-0.035-0.013-0.053-0.017c-0.062-0.013-0.129-0.025-0.193-0.026c-0.072,0-0.145,0.009-0.215,0.02
			c-0.092,0.014-0.178,0.054-0.258,0.1c-0.036,0.02-0.073,0.04-0.107,0.062c-0.027,0.018-0.052,0.037-0.077,0.058
			c-0.04,0.034-0.08,0.069-0.12,0.103c-0.053,0.052-0.094,0.111-0.121,0.179c-0.029,0.061-0.053,0.135-0.056,0.208
			c-0.028,0.048-0.054,0.096-0.077,0.149c-0.025,0.06-0.036,0.126-0.046,0.189c-0.01,0.062-0.002,0.127,0.007,0.188
			c0.004,0.03,0.013,0.059,0.025,0.087c0.025,0.06,0.051,0.122,0.092,0.172c0.055,0.067,0.125,0.139,0.205,0.18
			c0.11,0.057,0.197,0.087,0.323,0.092c0.06,0.002,0.122-0.006,0.18-0.017c0.063-0.012,0.125-0.034,0.183-0.058
			c0.063-0.025,0.123-0.063,0.179-0.099c0.058-0.037,0.11-0.087,0.161-0.133c0.066-0.058,0.119-0.131,0.168-0.203
			c0.049-0.072,0.085-0.154,0.118-0.234c0.017-0.04,0.029-0.081,0.038-0.123c0.018-0.08,0.039-0.164,0.039-0.247
			C219.676,188.08,219.669,188.02,219.662,187.962z"/>
		<path style="fill:#E14A31;" d="M210.75,179.435c-0.009-0.034-0.027-0.064-0.042-0.095c0,0,0-0.001,0-0.001
			c0.007,0.015,0.014,0.031,0.021,0.046c-0.011-0.025-0.016-0.051-0.021-0.077c0-0.008-0.001-0.017,0-0.025
			c0.006-0.047-0.003-0.089-0.026-0.128c-0.014-0.043-0.04-0.076-0.08-0.101c-0.027-0.012-0.054-0.025-0.081-0.037
			c-0.048-0.015-0.096-0.018-0.145-0.009c-0.036,0-0.071,0.007-0.104,0.022c-0.056,0.014-0.108,0.039-0.155,0.075
			c-0.03,0.026-0.06,0.051-0.09,0.077c-0.05,0.052-0.088,0.112-0.112,0.18c-0.01,0.043-0.02,0.087-0.027,0.13
			c-0.002,0.015-0.004,0.029-0.004,0.044c0,0.013,0,0.027,0.001,0.04c0.003,0.042,0.005,0.086,0.013,0.128
			c0.002,0.013,0.005,0.026,0.009,0.039c0.002,0.007,0.004,0.013,0.007,0.02c0.001,0.003,0.002,0.006,0.003,0.009
			c0.001,0.001,0.001,0.003,0.002,0.004c0.012,0.027,0.025,0.055,0.037,0.082c0.004,0.006,0.009,0.011,0.014,0.016
			c0.025,0.025,0.049,0.05,0.075,0.074c0.011,0.01,0.022,0.019,0.034,0.027c0.027,0.012,0.053,0.025,0.08,0.037
			c0.048,0.015,0.095,0.017,0.143,0.009c0.036,0,0.07-0.007,0.102-0.022c0.056-0.014,0.107-0.039,0.154-0.074l0.089-0.076
			l0.067-0.086c0.029-0.042,0.047-0.088,0.053-0.137c0.014-0.044,0.014-0.088,0.002-0.133
			C210.762,179.473,210.755,179.454,210.75,179.435z"/>
	</g>
	<g style="opacity:0.47;">
		<path style="fill:#E14A31;" d="M165.632,188.758c0.016-0.051,0.049-0.091,0.096-0.121c0.047-0.033,0.098-0.05,0.153-0.053
			c0.059-0.013,0.119-0.012,0.179,0.004c0.042,0.014,0.084,0.027,0.126,0.041c0.087,0.039,0.164,0.093,0.231,0.162
			c0.027,0.035,0.054,0.07,0.081,0.105c0.044,0.068,0.069,0.142,0.076,0.223v0.147c0.007,0.056-0.003,0.107-0.031,0.154
			c-0.016,0.051-0.049,0.091-0.096,0.121c-0.047,0.033-0.098,0.05-0.153,0.053c-0.059,0.013-0.119,0.012-0.179-0.004
			c-0.042-0.014-0.084-0.027-0.126-0.041c-0.088-0.039-0.165-0.093-0.231-0.162c-0.027-0.035-0.054-0.07-0.081-0.105
			c-0.044-0.068-0.069-0.142-0.076-0.223v-0.147C165.593,188.856,165.604,188.804,165.632,188.758z"/>
		<path style="fill:#E14A31;" d="M160.79,187.566c0.47,0,0.909,0.835,0.286,0.835C160.607,188.401,160.167,187.566,160.79,187.566z"
			/>
		<path style="fill:#E14A31;" d="M155.145,187.22c0.007-0.069,0.021-0.136,0.042-0.203c0.008-0.025,0.02-0.049,0.032-0.072
			c0.011-0.069,0.036-0.136,0.099-0.175c0.091-0.056,0.186-0.055,0.289-0.043c0.117-0.006,0.236,0.005,0.334,0.059
			c0.049,0.026,0.092,0.054,0.137,0.081c0.193,0.089,0.371,0.212,0.513,0.365c0.261,0.283,0.408,0.646,0.437,1.028
			c0.008,0.099-0.028,0.191-0.098,0.259c-0.076,0.075-0.163,0.097-0.269,0.107c-0.154,0.013-0.306,0.005-0.459-0.018
			c-0.19-0.029-0.359-0.108-0.522-0.205c-0.079-0.047-0.151-0.112-0.216-0.175c-0.065-0.062-0.122-0.137-0.169-0.213
			c-0.093-0.152-0.147-0.32-0.163-0.497C155.122,187.42,155.134,187.318,155.145,187.22z"/>
		<path style="fill:#E14A31;" d="M147.298,189.225c0.013-0.061,0.042-0.109,0.089-0.146c0.038-0.047,0.088-0.077,0.148-0.09
			c0.016-0.006,0.031-0.012,0.046-0.018c0.035-0.005,0.07-0.01,0.105-0.015c0.06-0.002,0.118,0.008,0.173,0.03
			c0.042,0.009,0.081,0.026,0.116,0.051c0.06,0.029,0.113,0.068,0.158,0.118l0.058,0.053c0.03,0.039,0.06,0.077,0.09,0.116
			c0.039,0.056,0.063,0.118,0.072,0.185c0.014,0.04,0.017,0.08,0.008,0.121c0.003,0.04-0.007,0.078-0.029,0.111
			c-0.018,0.057-0.054,0.101-0.107,0.134l-0.107,0.05l-0.125,0.018c-0.072,0.003-0.14-0.009-0.206-0.036
			c-0.05-0.011-0.096-0.031-0.138-0.061c-0.049-0.021-0.091-0.051-0.128-0.09c-0.061-0.045-0.111-0.101-0.15-0.167
			c-0.02-0.041-0.039-0.082-0.059-0.123c-0.008-0.041-0.017-0.082-0.026-0.124C147.291,189.303,147.294,189.264,147.298,189.225z"/>
		<path style="fill:#E14A31;" d="M144.855,192.041c0.571,0,1.106,1.016,0.348,1.016
			C144.632,193.057,144.097,192.041,144.855,192.041z"/>
		<path style="fill:#E14A31;" d="M154.411,194.582c0.008-0.07,0.024-0.139,0.049-0.204c0.077-0.202,0.189-0.381,0.378-0.498
			c0.228-0.142,0.497-0.184,0.76-0.137c0.075,0.014,0.151,0.038,0.225,0.069c0.248,0.073,0.455,0.237,0.612,0.451
			c0.154,0.209,0.237,0.471,0.27,0.726c0.032,0.255-0.018,0.508-0.147,0.729c-0.152,0.259-0.425,0.38-0.712,0.411
			c-0.152,0.017-0.317-0.003-0.464-0.045c-0.321-0.091-0.579-0.28-0.767-0.555c-0.123-0.18-0.191-0.403-0.214-0.618
			C154.387,194.802,154.398,194.691,154.411,194.582z"/>
		<path style="fill:#E14A31;" d="M181.327,187.674c0.002-0.005,0.006-0.008,0.008-0.013c0.032-0.078,0.042-0.163,0.06-0.244
			c-0.029-0.072-0.04-0.149-0.019-0.228c0.027-0.103,0.099-0.161,0.185-0.193c0.007-0.017,0.014-0.035,0.022-0.052
			c0.037-0.088,0.076-0.175,0.116-0.262c0.044-0.06,0.102-0.1,0.173-0.12c0.079-0.021,0.158-0.022,0.238-0.004
			c0.178,0.036,0.349,0.155,0.444,0.311c0.134,0.22,0.255,0.446,0.348,0.687c0.054,0.139,0.022,0.313-0.108,0.4
			c-0.036,0.024-0.074,0.047-0.113,0.066c-0.058,0.028-0.117,0.06-0.18,0.073c-0.151,0.032-0.294,0.014-0.437-0.038
			c-0.001,0.001-0.002,0.002-0.003,0.003c-0.064,0.067-0.105,0.105-0.202,0.12c-0.186,0.027-0.385-0.084-0.482-0.243
			C181.335,187.866,181.298,187.758,181.327,187.674z"/>
		<path style="fill:#E14A31;" d="M180.21,182.798c0.533,0,1.031,0.947,0.324,0.947C180.002,183.745,179.503,182.798,180.21,182.798z
			"/>
		<path style="fill:#E14A31;" d="M175.839,194.366c0.006-0.046,0.013-0.093,0.019-0.139c0.013-0.062,0.043-0.111,0.091-0.148
			c0.039-0.047,0.089-0.078,0.151-0.092c0.042-0.006,0.085-0.012,0.127-0.019c0.073-0.003,0.143,0.01,0.209,0.037
			c0.051,0.011,0.098,0.032,0.141,0.062c0.072,0.035,0.136,0.083,0.191,0.143c0.031,0.039,0.061,0.079,0.092,0.118
			c0.049,0.077,0.078,0.161,0.086,0.251l0.019,0.151c0.007,0.085-0.014,0.164-0.061,0.235c-0.029,0.029-0.058,0.057-0.087,0.085
			c-0.075,0.048-0.156,0.071-0.245,0.072c-0.075,0.003-0.148-0.01-0.217-0.038c-0.079-0.02-0.152-0.055-0.218-0.105
			c-0.069-0.045-0.127-0.101-0.173-0.169c-0.05-0.055-0.087-0.119-0.11-0.191C175.825,194.537,175.819,194.453,175.839,194.366z"/>
		<path style="fill:#E14A31;" d="M139.972,190.647c0-0.009,0.008-0.106,0.01-0.115c0-0.001,0.001-0.002,0.001-0.004
			c0-0.001,0.001-0.002,0.001-0.004c0-0.001,0.001-0.002,0.001-0.002c0.001-0.001,0.045-0.098,0.045-0.099c0,0,0-0.001,0.001-0.001
			c0.002-0.003,0.004-0.006,0.006-0.009c0.024-0.03,0.053-0.056,0.082-0.081c0.045-0.031,0.094-0.048,0.147-0.051
			c0.022-0.005,0.044,0.002,0.066,0.001c0.008-0.001,0.015-0.003,0.023-0.003c0.016,0.002,0.033,0.003,0.049,0.005
			c0.011,0.002,0.022-0.002,0.034,0.001c0.004,0.001,0.008,0.003,0.012,0.004c0.014,0.001,0.029,0.003,0.044,0.004
			c0.005,0.002,0.011,0.004,0.016,0.005c0.009,0.003,0.019,0.005,0.029,0.006c-0.005-0.001-0.01-0.001-0.016-0.001
			c0.006,0.002,0.011,0.004,0.017,0.005c0.037,0.006,0.076,0.005,0.112,0.02c0.076,0.019,0.145,0.053,0.208,0.101
			c0.04,0.034,0.08,0.069,0.12,0.103c0.053,0.052,0.094,0.111,0.121,0.179c0.024,0.038,0.038,0.08,0.043,0.124
			c0.018,0.059,0.019,0.12,0.003,0.181c-0.016,0.035-0.032,0.071-0.048,0.106c-0.049,0.066-0.112,0.11-0.191,0.132
			c-0.046,0.007-0.091,0.014-0.137,0.02c-0.005,0.001-0.009,0.001-0.013,0.001c-0.008,0.001-0.015,0.001-0.023,0
			c-0.004,0-0.007,0-0.011-0.001c-0.047-0.004-0.095-0.008-0.142-0.014c-0.002,0-0.004-0.001-0.005-0.001
			c-0.003,0-0.006-0.001-0.01-0.002c-0.001,0-0.003-0.001-0.004-0.001c-0.001,0-0.001,0-0.002-0.001
			c-0.024-0.008-0.048-0.015-0.072-0.023c-0.024-0.008-0.048-0.015-0.072-0.023c-0.002-0.001-0.138-0.077-0.14-0.079
			c-0.001-0.001-0.121-0.104-0.122-0.104c-0.001-0.001-0.091-0.117-0.092-0.118c-0.001-0.002-0.06-0.124-0.06-0.126
			c-0.001-0.001-0.001-0.003-0.001-0.004c0-0.001,0-0.002-0.001-0.002c-0.001-0.005-0.025-0.118-0.026-0.124
			c0-0.001,0-0.003,0-0.004C139.972,190.648,139.972,190.648,139.972,190.647z"/>
		<g>
			<path style="fill:#E14A31;" d="M136.409,183.603c0.008,0.086,0.035,0.165,0.081,0.238c0.029,0.037,0.058,0.074,0.087,0.112
				c0.052,0.057,0.112,0.103,0.181,0.136c0.061,0.04,0.128,0.067,0.201,0.081c0.064,0.017,0.128,0.018,0.191,0.004
				c0.059-0.003,0.114-0.022,0.164-0.057c0.008-0.004,0.017-0.008,0.025-0.012c0.02-0.01,0.04-0.02,0.06-0.03
				c0.001,0,0.002-0.001,0.002-0.001c0.007-0.003,0.014-0.005,0.022-0.007c0.003-0.001,0.006-0.001,0.009-0.002
				c0.038-0.014,0.075-0.031,0.111-0.051c0.035-0.021,0.059-0.05,0.079-0.081c0.002-0.003,0.005-0.004,0.007-0.007l-0.001,0.001
				c0-0.001,0.001-0.001,0.001-0.001c0.001-0.001,0.003-0.002,0.004-0.003c0.022-0.031,0.04-0.068,0.048-0.105
				c0-0.002,0.01-0.116,0.01-0.118c0-0.081-0.044-0.182-0.085-0.248c-0.026-0.042-0.057-0.082-0.092-0.118
				c-0.075-0.079-0.165-0.14-0.264-0.185c-0.002-0.001-0.003-0.001-0.005-0.002c-0.137-0.051-0.107-0.043-0.214-0.054
				c-0.075-0.007-0.106-0.012-0.183,0.009c-0.016,0.008-0.103,0.041-0.128,0.055c-0.004,0.002-0.008,0.005-0.013,0.008
				c-0.011,0.008-0.021,0.016-0.032,0.024c-0.046,0.038-0.088,0.081-0.132,0.122c-0.064,0.044-0.106,0.104-0.126,0.18
				C136.415,183.527,136.412,183.565,136.409,183.603z"/>
			<path style="fill:#E14A31;" d="M136.85,183.1c-0.006,0.002-0.009,0.001-0.016,0.003
				C136.853,183.097,136.855,183.097,136.85,183.1z"/>
		</g>
		<path style="fill:#E14A31;" d="M141.907,182.897c0.049-0.061,0.131-0.108,0.212-0.1c0.056,0.005,0.112,0.011,0.168,0.017
			c0.032,0.003,0.063,0.006,0.095,0.008c0.011-0.076,0.041-0.153,0.106-0.193c0.091-0.056,0.203-0.07,0.306-0.045
			c0.121,0.029,0.246,0.091,0.329,0.187c0.077,0.089,0.142,0.176,0.182,0.288c0.012,0.034,0.02,0.079,0.023,0.115
			c0.001,0.015-0.002,0.075-0.011,0.108c-0.004,0.014-0.024,0.054-0.021,0.047c0.008-0.017-0.013,0.035-0.021,0.046
			c-0.019,0.027-0.055,0.061-0.073,0.074c-0.004,0.003-0.008,0.006-0.012,0.008c-0.02,0.013-0.064,0.032-0.087,0.04
			c-0.003,0.001-0.005,0.002-0.008,0.003c-0.042,0.012-0.086,0.017-0.13,0.02c-0.04,0.002-0.08-0.007-0.119-0.012
			c-0.199,0.002-0.398-0.037-0.594-0.065c-0.051-0.01-0.097-0.028-0.14-0.056c-0.048-0.023-0.09-0.055-0.126-0.095
			c-0.053-0.059-0.093-0.124-0.109-0.202C141.864,183.027,141.865,182.951,141.907,182.897z"/>
		<path style="fill:#E14A31;" d="M144.288,199.469c0.499,0,0.966,0.887,0.304,0.887
			C144.093,200.356,143.626,199.469,144.288,199.469z"/>
		<path style="fill:#E14A31;" d="M150.19,201.565c0.46,0,0.891,0.818,0.28,0.818C150.01,202.383,149.58,201.565,150.19,201.565z"/>
		<path style="fill:#E14A31;" d="M160.346,199.044c0.479,0,0.928,0.852,0.292,0.852C160.158,199.897,159.71,199.044,160.346,199.044
			z"/>
		<path style="fill:#E14A31;" d="M157.242,194.589c0.026-0.025,0.052-0.051,0.077-0.076c0.066-0.042,0.139-0.064,0.218-0.064
			c0.043,0.004,0.085,0.008,0.127,0.013c0.094,0.021,0.18,0.059,0.259,0.115c0.058,0.048,0.125,0.098,0.173,0.159
			c0.032,0.04,0.064,0.079,0.094,0.121c0.004,0.006,0.009,0.013,0.012,0.019c0.029,0.047,0.05,0.098,0.072,0.148
			c0.026,0.058,0.036,0.129,0.047,0.188c0.005,0.03,0.007,0.061,0.005,0.092c0.007,0.056-0.003,0.107-0.031,0.154
			c-0.016,0.051-0.049,0.091-0.096,0.121c-0.047,0.033-0.098,0.05-0.153,0.053c-0.059,0.013-0.119,0.012-0.179-0.004
			c-0.042-0.014-0.084-0.027-0.126-0.041c-0.087-0.039-0.164-0.093-0.231-0.162c-0.027-0.035-0.054-0.07-0.081-0.105
			c-0.036-0.057-0.057-0.119-0.068-0.184c-0.016-0.018-0.039-0.031-0.053-0.052c-0.044-0.049-0.077-0.106-0.098-0.17
			c-0.023-0.056-0.029-0.113-0.019-0.171C157.191,194.687,157.208,194.635,157.242,194.589z"/>
		<path style="fill:#E14A31;" d="M167.538,195.733c0.018-0.068,0.056-0.123,0.114-0.163c0.031-0.015,0.063-0.029,0.094-0.044
			c0.034-0.009,0.069-0.013,0.103-0.014c0.001-0.038,0.002-0.076,0.022-0.109c0.015-0.048,0.045-0.085,0.09-0.113
			c0.03-0.014,0.06-0.028,0.09-0.042c0.054-0.016,0.108-0.02,0.162-0.01c0.04,0,0.079,0.008,0.116,0.025
			c0.063,0.016,0.121,0.044,0.174,0.084l0.1,0.086c0.056,0.058,0.098,0.125,0.125,0.201c0.017,0.076,0.038,0.158,0.038,0.238
			c0,0.052-0.005,0.104-0.013,0.155c-0.003,0.016-0.007,0.032-0.013,0.047c-0.015,0.037-0.031,0.074-0.05,0.11
			c-0.003,0.007-0.007,0.013-0.012,0.019c-0.018,0.024-0.068,0.076-0.107,0.097c-0.003,0.002-0.006,0.003-0.009,0.005
			c-0.033,0.016-0.068,0.033-0.102,0.047c-0.007,0.003-0.015,0.005-0.022,0.007c-0.025,0.007-0.052,0.009-0.077,0.012
			c-0.026,0.004-0.053,0.009-0.08,0.01c-0.01,0-0.02,0-0.029,0c-0.05-0.003-0.1-0.008-0.15-0.015
			c-0.025-0.003-0.049-0.009-0.074-0.016c-0.066-0.012-0.127-0.037-0.182-0.074c-0.062-0.03-0.117-0.071-0.164-0.123
			c-0.046-0.045-0.081-0.096-0.105-0.156c-0.029-0.05-0.045-0.104-0.048-0.162C167.532,195.802,167.535,195.767,167.538,195.733z"/>
		<path style="fill:#E14A31;" d="M171,197.238c0.019-0.09,0.037-0.18,0.056-0.27c0.008-0.038,0.027-0.069,0.056-0.092
			c0.024-0.029,0.055-0.048,0.093-0.057c0.026-0.004,0.052-0.008,0.078-0.011c0.045-0.002,0.088,0.006,0.129,0.023
			c0.032,0.007,0.06,0.02,0.087,0.038c0.045,0.022,0.084,0.051,0.118,0.088c0.019,0.024,0.038,0.049,0.057,0.073
			c0.03,0.047,0.048,0.099,0.053,0.155c0.019,0.102,0.038,0.204,0.057,0.307c0.005,0.06-0.01,0.114-0.043,0.164
			c-0.02,0.02-0.04,0.04-0.061,0.059c-0.052,0.033-0.109,0.05-0.171,0.05c-0.053,0.002-0.103-0.007-0.151-0.027
			c-0.055-0.014-0.106-0.038-0.152-0.073c-0.048-0.031-0.089-0.071-0.121-0.118c-0.035-0.038-0.06-0.083-0.076-0.133
			C170.99,197.358,170.987,197.298,171,197.238z"/>
		<path style="fill:#E14A31;" d="M173.798,194.882c0.009-0.044,0.031-0.08,0.066-0.107c0.028-0.034,0.064-0.056,0.109-0.066
			l0.127-0.033c0.07-0.018,0.14-0.02,0.21-0.004c0.081,0.018,0.155,0.051,0.223,0.098c0.032,0.028,0.064,0.055,0.096,0.082
			c0.054,0.056,0.094,0.12,0.12,0.193c0.02,0.048,0.025,0.097,0.016,0.147c0.001,0.048-0.013,0.092-0.043,0.132
			c-0.08,0.114-0.235,0.138-0.363,0.109l-0.149-0.033c-0.034-0.011-0.068-0.022-0.103-0.033c-0.055-0.022-0.103-0.054-0.144-0.094
			c-0.031-0.022-0.057-0.048-0.077-0.08c-0.035-0.038-0.06-0.083-0.076-0.133c-0.006-0.03-0.012-0.061-0.019-0.091
			C173.793,194.94,173.796,194.911,173.798,194.882z"/>
		<path style="fill:#E14A31;" d="M148.729,203.953c0.04-0.061,0.094-0.104,0.162-0.126c0.065-0.037,0.136-0.055,0.213-0.051
			c0.114,0,0.223,0.023,0.328,0.07c0.109,0.048,0.215,0.119,0.299,0.206c0.01,0.007,0.022,0.008,0.031,0.015
			c0.041,0.035,0.082,0.07,0.123,0.105c0.031,0.04,0.062,0.079,0.093,0.119c0.04,0.058,0.065,0.121,0.074,0.19
			c0.019,0.061,0.02,0.122,0.003,0.185c-0.008,0.032-0.016,0.064-0.02,0.097c-0.003,0.019-0.004,0.038-0.007,0.057
			c-0.001,0.006-0.002,0.012-0.004,0.018c-0.001,0.001-0.001,0.003-0.002,0.005c-0.009,0.023-0.04,0.092-0.052,0.114
			c-0.002,0.003-0.003,0.005-0.005,0.008c-0.002,0.003-0.004,0.005-0.006,0.007c-0.001,0.002-0.003,0.003-0.004,0.004
			c-0.026,0.028-0.063,0.064-0.091,0.089c-0.007,0.006-0.014,0.012-0.021,0.018c-0.03,0.023-0.063,0.044-0.094,0.065
			c-0.164,0.11-0.381,0.085-0.553,0.01c-0.106-0.047-0.199-0.112-0.279-0.195c-0.073-0.075-0.127-0.162-0.162-0.26
			c-0.012-0.039-0.024-0.079-0.038-0.118c-0.024-0.067-0.036-0.138-0.048-0.207c-0.009-0.052-0.005-0.106-0.007-0.159
			C148.652,204.121,148.675,204.033,148.729,203.953z"/>
		<path style="fill:#E14A31;" d="M136.169,188.546c0.019-0.046,0.039-0.095,0.063-0.138c0.004-0.007,0.008-0.013,0.012-0.019
			c0.032-0.039,0.072-0.074,0.109-0.109c0.006-0.005,0.011-0.01,0.017-0.015c0.013-0.01,0.026-0.018,0.041-0.025
			c0.053-0.027,0.111-0.059,0.171-0.074c0.064-0.016,0.131-0.024,0.197-0.029c0.022-0.001,0.044-0.001,0.065,0.001
			c0.076,0.006,0.154,0.01,0.228,0.027c0.013,0.003,0.025,0.006,0.037,0.01c0.007,0.002,0.013,0.004,0.02,0.006
			c0.038,0.012,0.13,0.038,0.168,0.054c0.002,0.001,0.004,0.002,0.007,0.003c0.054,0.03,0.107,0.061,0.161,0.091
			c0.013,0.009,0.025,0.018,0.037,0.028c0.006,0.005,0.012,0.009,0.018,0.014c0.007,0.005,0.02,0.017,0.031,0.025
			c0.012,0.008,0.026,0.013,0.038,0.02c0.089,0.056,0.163,0.148,0.222,0.233c0.035,0.05,0.063,0.109,0.081,0.167
			c0.014,0.044,0.022,0.092,0.029,0.137c0.002,0.013,0.004,0.026,0.003,0.039c-0.001,0.135-0.031,0.236-0.1,0.353
			c-0.019,0.032-0.042,0.062-0.067,0.09c-0.047,0.053-0.098,0.105-0.154,0.148c-0.066,0.051-0.147,0.088-0.224,0.116
			c-0.017,0.006-0.034,0.011-0.052,0.014c-0.057,0.01-0.119,0.024-0.178,0.022c-0.054-0.002-0.111-0.008-0.164-0.016
			c-0.008-0.001-0.016-0.002-0.023-0.004c-0.056-0.013-0.112-0.034-0.167-0.053c-0.008-0.003-0.016-0.006-0.023-0.009
			c-0.006-0.003-0.012-0.006-0.019-0.01c-0.055-0.029-0.113-0.058-0.164-0.094c-0.006-0.004-0.012-0.009-0.018-0.014
			c-0.049-0.039-0.099-0.081-0.145-0.125c-0.049-0.047-0.089-0.106-0.128-0.16c-0.009-0.012-0.018-0.025-0.025-0.038
			c-0.032-0.057-0.061-0.117-0.085-0.177c-0.006-0.015-0.01-0.03-0.014-0.046c-0.018-0.071-0.04-0.152-0.037-0.228
			C136.141,188.695,136.142,188.614,136.169,188.546z"/>
		<path style="fill:#E14A31;" d="M150.432,184.699l0.083-0.082c0.071-0.046,0.149-0.068,0.234-0.068
			c0.072-0.003,0.141,0.009,0.207,0.036c0.075,0.019,0.145,0.053,0.208,0.1c0.066,0.043,0.121,0.097,0.165,0.161
			c0.048,0.053,0.083,0.113,0.105,0.182c0.008,0.041,0.017,0.083,0.026,0.124c0.006,0.081-0.013,0.156-0.059,0.224l-0.083,0.082
			c-0.071,0.046-0.149,0.068-0.233,0.068c-0.072,0.003-0.141-0.009-0.207-0.036c-0.076-0.019-0.145-0.053-0.208-0.1
			c-0.066-0.043-0.121-0.097-0.165-0.161c-0.048-0.053-0.083-0.114-0.105-0.182c-0.009-0.041-0.017-0.083-0.026-0.124
			C150.367,184.842,150.387,184.767,150.432,184.699z"/>
		<path style="fill:#E14A31;" d="M173.737,187.962c0.002-0.019,0.006-0.037,0.011-0.055c0.016-0.055,0.043-0.108,0.068-0.158
			c0.008-0.015,0.016-0.03,0.027-0.043c0.035-0.044,0.077-0.085,0.121-0.12c0.045-0.036,0.105-0.057,0.156-0.079
			c0.017-0.007,0.035-0.013,0.053-0.017c0.062-0.013,0.129-0.025,0.193-0.026c0.072,0,0.144,0.009,0.215,0.02
			c0.092,0.014,0.178,0.054,0.258,0.1c0.036,0.02,0.073,0.04,0.107,0.062c0.027,0.018,0.052,0.037,0.077,0.058
			c0.04,0.034,0.08,0.069,0.12,0.103c0.053,0.052,0.094,0.111,0.121,0.179c0.029,0.061,0.053,0.135,0.056,0.208
			c0.028,0.048,0.054,0.096,0.077,0.149c0.025,0.06,0.036,0.126,0.046,0.189c0.01,0.062,0.002,0.127-0.007,0.188
			c-0.005,0.03-0.013,0.059-0.025,0.087c-0.025,0.06-0.051,0.122-0.092,0.172c-0.055,0.067-0.125,0.139-0.205,0.18
			c-0.11,0.057-0.197,0.087-0.323,0.092c-0.06,0.002-0.122-0.006-0.18-0.017c-0.063-0.012-0.125-0.034-0.183-0.058
			c-0.063-0.025-0.123-0.063-0.179-0.099c-0.059-0.037-0.11-0.087-0.161-0.133c-0.066-0.058-0.119-0.131-0.169-0.203
			c-0.049-0.072-0.085-0.154-0.118-0.234c-0.017-0.04-0.029-0.081-0.038-0.123c-0.018-0.08-0.039-0.164-0.039-0.247
			C173.723,188.08,173.73,188.02,173.737,187.962z"/>
		<path style="fill:#E14A31;" d="M182.65,179.435c0.009-0.034,0.027-0.064,0.042-0.095c0,0,0-0.001,0-0.001
			c-0.007,0.015-0.014,0.031-0.021,0.046c0.011-0.025,0.015-0.051,0.021-0.077c-0.001-0.008,0-0.017-0.001-0.025
			c-0.006-0.047,0.003-0.089,0.026-0.128c0.014-0.043,0.04-0.076,0.08-0.101c0.027-0.012,0.054-0.025,0.081-0.037
			c0.048-0.015,0.096-0.018,0.145-0.009c0.036,0,0.071,0.007,0.104,0.022c0.057,0.014,0.108,0.039,0.156,0.075
			c0.03,0.026,0.06,0.051,0.09,0.077c0.05,0.052,0.088,0.112,0.112,0.18c0.01,0.043,0.02,0.087,0.027,0.13
			c0.002,0.015,0.004,0.029,0.004,0.044c0.001,0.013,0,0.027-0.001,0.04c-0.003,0.042-0.005,0.086-0.012,0.128
			c-0.002,0.013-0.006,0.026-0.009,0.039c-0.002,0.007-0.004,0.013-0.007,0.02c-0.001,0.003-0.002,0.006-0.003,0.009
			c-0.001,0.001-0.001,0.003-0.002,0.004c-0.013,0.027-0.025,0.055-0.038,0.082c-0.004,0.006-0.009,0.011-0.014,0.016
			c-0.025,0.025-0.049,0.05-0.075,0.074c-0.011,0.01-0.022,0.019-0.034,0.027c-0.027,0.012-0.053,0.025-0.08,0.037
			c-0.048,0.015-0.095,0.017-0.143,0.009c-0.036,0-0.07-0.007-0.102-0.022c-0.056-0.014-0.107-0.039-0.154-0.074l-0.089-0.076
			l-0.067-0.086c-0.029-0.042-0.047-0.088-0.053-0.137c-0.014-0.044-0.014-0.088-0.002-0.133
			C182.637,179.473,182.644,179.454,182.65,179.435z"/>
	</g>
	<path style="fill:#231F20;" d="M273.368,155.036c0,0-3.734,8.128-4.613,9.007c-0.597,0.597-2.407-0.022-3.509-0.48
		c-1.08-4.165-4.72-12.855-16.482-14.677c-13.709-2.124-31.633-2.636-39.541,10.105c0,0-2.726,1.913-3.668,8.741
		c-1.863-2.178-5.165-3.69-9.095-3.736c-0.104-0.003-0.205-0.002-0.308-0.002c-0.103,0.001-0.204-0.001-0.308,0.002
		c-3.929,0.046-7.232,1.557-9.095,3.736c-0.942-6.827-3.668-8.741-3.668-8.741c-7.908-12.741-25.832-12.229-39.541-10.105
		c-11.761,1.822-15.402,10.512-16.482,14.677c-1.102,0.459-2.912,1.077-3.509,0.48c-0.879-0.879-3.076-8.128-3.076-8.128
		s-3.515,5.272,0,10.105c0,0,4.377,10.607,6.151,10.508c0.603,6.365,2.449,11.649,5.931,16.292
		c5.272,7.03,18.892,12.302,33.391,9.666c14.498-2.636,20.649-15.817,21.089-28.118c0.024-0.661,0.031-1.291,0.028-1.9
		c0.991-1.018,2.555-2.459,4.368-3.531c1.156-0.618,2.486-1.134,3.952-1.379c0.255-0.043,0.512-0.061,0.769-0.068
		c0.257,0.007,0.513,0.026,0.769,0.068c1.466,0.244,2.796,0.761,3.952,1.379c1.812,1.073,3.377,2.513,4.367,3.531
		c-0.003,0.609,0.004,1.238,0.028,1.9c0.439,12.302,6.59,25.482,21.089,28.118c14.499,2.636,28.118-2.636,33.391-9.666
		c3.483-4.644,5.328-9.927,5.931-16.292c1.774,0.099,7.029-8.091,7.029-8.091C276.443,160.747,273.368,155.036,273.368,155.036z
		 M183.741,174.587c-0.879,9.666-4.833,21.528-17.135,24.164c-12.302,2.636-24.164,0.439-31.194-8.787
		c-7.03-9.226-5.272-21.089-5.272-21.089s0.879-13.18,11.862-15.817c10.984-2.636,22.846-2.197,30.315,1.318
		C179.787,157.891,184.62,164.921,183.741,174.587z M256.892,189.964c-7.03,9.226-18.892,11.423-31.194,8.787
		c-12.302-2.636-16.256-14.498-17.135-24.164c-0.879-9.666,3.954-16.695,11.423-20.21c7.469-3.515,19.331-3.954,30.315-1.318
		c10.984,2.636,11.862,15.817,11.862,15.817S263.922,180.738,256.892,189.964z"/>
</g>
</svg>
