<svg xmlns="http://www.w3.org/2000/svg" fill="none" viewBox="0 0 70 70">
	<path fill="url(#paint0_linear_1_1935)"
		d="M57.096 59.264v.582L20.11 69.702l-.65-18.369 2.37-.57 35.266 8.501z"></path>
	<path fill="url(#paint1_linear_1_1935)"
		d="M57.095 32.832v26.432c-2.916-.695-6.628-1.6-10.805-2.604L43.547 56c-.621-.153-1.252-.303-1.886-.463l-1.93-.463c-5.769-1.39-11.984-2.889-17.899-4.318-8.075-1.948-15.605-3.764-20.719-4.987l54.885-13.236 1.097.299z"></path>
	<path fill="url(#paint2_linear_1_1935)"
		d="M63.38 0v30.761L56 32.538 1.114 45.774c-.056-.019-.115-.03-.17-.044V16.639L63.38 0z"></path>
	<defs>
		<linearGradient id="paint0_linear_1_1935" x1="38.277" x2="38.277" y1="50.763"
			y2="69.702" gradientUnits="userSpaceOnUse">
			<stop stop-color="#006838"></stop>
			<stop offset="1" stop-color="#37B34A"></stop>
		</linearGradient>
		<linearGradient id="paint1_linear_1_1935" x1="29.104" x2="29.104" y1="32.538"
			y2="59.264" gradientUnits="userSpaceOnUse">
			<stop stop-color="#006838"></stop>
			<stop offset="1" stop-color="#37B34A"></stop>
		</linearGradient>
		<linearGradient id="paint2_linear_1_1935" x1="32.162" x2="32.162" y1="0" y2="45.774"
			gradientUnits="userSpaceOnUse">
			<stop stop-color="#006838"></stop>
			<stop offset="1" stop-color="#37B34A"></stop>
		</linearGradient>
	</defs>
</svg>
