<?xml version="1.0" encoding="utf-8"?>
<!-- Generator: Adobe Illustrator 27.5.0, SVG Export Plug-In . SVG Version: 6.00 Build 0)  -->
<svg version="1.1" id="Layer_1" xmlns="http://www.w3.org/2000/svg"
	xmlns:xlink="http://www.w3.org/1999/xlink" x="0px" y="0px"
	viewBox="0 0 3997.185 2025" style="enable-background:new 0 0 3997.185 2025;"
	xml:space="preserve">
<g>
	<rect style="fill:#E7F5FC;" width="3997.185" height="2025"/>
	<path style="fill:#C2E7F7;" d="M257.962,1837.659h3371.476c160.964-443.294,382.843-1057.409-256.542-840.439
		c-723.271,245.437-208.676-109.032-49.086-216.97c597.184-403.904-159.772-497.648-625.61-385.61
		c-1296.128,311.729-616.598-214.76-914.149-158.98C1277.605,330.6,498.583,933.836,198.134,1352.443
		C36.69,1577.378,1515.585,925.896,257.962,1837.659z"/>
	<g>
		<path style="fill:#FFFFFF;" d="M3361.301,769.326c10.811-7.576,21.587-15.199,32.188-23.057
			c10.669-7.764,21.146-15.786,31.555-23.885c10.346-8.18,20.593-16.482,30.611-25.049c10.001-8.585,19.832-17.362,29.391-26.418
			c19.059-18.15,37.22-37.313,53.002-58.28c7.866-10.487,15.152-21.401,21.453-32.837c3.04-5.769,6.036-11.571,8.483-17.598
			l0.957-2.243c0.304-0.753,0.577-1.518,0.867-2.276l1.709-4.56c0.985-3.088,2.076-6.146,2.865-9.286
			c0.922-3.106,1.546-6.278,2.244-9.43l0.799-4.771c0.297-1.586,0.391-3.196,0.598-4.792c0.665-6.399,0.777-12.842,0.231-19.227
			c-1.163-12.765-5.036-25.198-11.218-36.431c-3.07-5.63-6.764-10.919-10.803-15.928c-4.065-4.99-8.459-9.74-13.244-14.099
			c-9.505-8.787-20.109-16.411-31.261-23.136c-1.379-0.865-2.792-1.677-4.21-2.482c-1.417-0.805-2.82-1.633-4.249-2.419
			c-2.882-1.529-5.722-3.132-8.652-4.578c-5.793-3.011-11.746-5.722-17.714-8.392c-11.993-5.229-24.274-9.83-36.716-13.966
			c-24.895-8.268-50.447-14.597-76.217-19.769c-51.566-10.382-104.062-16.012-156.635-19.066
			c-52.599-3.036-105.365-3.182-158.046-1.246c-52.681,2.025-105.299,6.203-157.644,12.73c-26.182,3.187-52.289,7.026-78.296,11.479
			c-13.004,2.226-25.973,4.655-38.916,7.227c-12.949,2.542-25.865,5.26-38.741,8.173c12.796-3.245,25.643-6.296,38.531-9.174
			c12.896-2.839,25.832-5.508,38.805-7.99c25.946-4.958,52.016-9.305,78.182-13.003c26.169-3.678,52.433-6.687,78.748-9.178
			c26.319-2.45,52.698-4.29,79.107-5.539c13.205-0.622,26.417-1.122,39.635-1.446c13.218-0.309,26.441-0.451,39.664-0.453
			c26.447,0.005,52.899,0.676,79.323,2.022c26.422,1.398,52.81,3.58,79.112,6.616c26.298,3.052,52.509,7.022,78.505,12.218
			c25.975,5.267,51.762,11.705,76.969,20.132c25.168,8.443,49.92,18.703,72.775,32.643c11.403,6.971,22.302,14.895,32.136,24.096
			c4.946,4.563,9.517,9.555,13.752,14.819c4.209,5.284,8.071,10.886,11.289,16.869c6.472,11.935,10.563,25.232,11.663,38.791
			c0.513,6.778,0.325,13.585-0.441,20.302c-0.232,1.674-0.353,3.366-0.678,5.023l-0.887,4.985c-0.758,3.283-1.447,6.586-2.435,9.803
			c-0.855,3.258-2.012,6.412-3.067,9.6l-1.811,4.693c-0.307,0.78-0.598,1.567-0.919,2.34l-1.007,2.3
			c-2.585,6.184-5.712,12.099-8.883,17.97c-6.555,11.628-14.068,22.655-22.201,33.159c-16.289,21.011-34.824,40.072-54.263,58.016
			c-9.78,8.917-19.814,17.536-30.008,25.953c-10.21,8.398-20.636,16.522-31.155,24.515c-10.583,7.908-21.214,15.749-32.051,23.297
			C3383.274,754.683,3372.301,762.029,3361.301,769.326z"/>
		<path style="fill:#FFFFFF;" d="M3691.314,1759.363c6.71-19.155,13.381-38.323,19.969-57.518
			c6.625-19.182,13.179-38.389,19.626-57.63c12.885-38.484,25.332-77.113,37.034-115.959c11.735-38.833,22.76-77.88,32.531-117.231
			c9.748-39.349,18.386-78.983,24.796-118.97c6.38-39.967,10.671-80.33,10.696-120.714c-0.015-20.178-1.205-40.353-4.097-60.26
			c-2.893-19.892-7.587-39.538-14.882-58.162c-7.244-18.618-17.295-36.143-30.354-51.135c-6.558-7.459-13.833-14.275-21.712-20.317
			c-7.898-6.019-16.419-11.211-25.328-15.632c-8.914-4.418-18.233-8.039-27.784-10.937c-9.558-2.883-19.34-5.062-29.225-6.659
			c-19.789-3.173-39.953-3.972-60.058-3.401c-40.271,1.28-80.281,8.265-119.563,17.693c-19.646,4.775-39.139,10.216-58.482,16.165
			c-9.675,2.962-19.306,6.078-28.905,9.291l-28.879,9.65c-38.561,12.764-77.284,25.066-116.297,36.452
			c-39.014,11.359-78.307,21.926-118.22,30.015c-9.981,2.003-20.006,3.824-30.089,5.357c-10.084,1.515-20.218,2.81-30.439,3.496
			c-5.107,0.358-10.235,0.576-15.385,0.542c-5.147-0.029-10.316-0.273-15.484-0.954c-5.16-0.673-10.352-1.809-15.325-3.984
			c-2.465-1.134-4.875-2.553-6.984-4.459c-2.108-1.891-3.865-4.321-4.891-7.038c-1.044-2.713-1.362-5.615-1.205-8.377
			c0.156-2.773,0.747-5.434,1.535-7.985c1.621-5.094,4.047-9.748,6.715-14.184c5.401-8.845,11.88-16.821,18.627-24.487
			c13.588-15.265,28.457-29.211,43.683-42.682c15.273-13.427,30.979-26.327,46.907-38.931c15.932-12.6,32.094-24.897,48.4-36.994
			c16.308-12.094,32.756-23.994,49.316-35.732c16.579-11.713,33.263-23.273,50.019-34.726
			c-16.561,11.733-33.047,23.57-49.422,35.556c-16.396,11.956-32.695,24.044-48.836,36.336
			c-16.141,12.291-32.132,24.777-47.879,37.555c-15.743,12.781-31.252,25.849-46.297,39.413
			c-15.017,13.577-29.702,27.575-42.969,42.768c-6.584,7.614-12.875,15.526-17.98,24.065c-2.52,4.271-4.762,8.71-6.177,13.315
			c-1.385,4.564-1.924,9.426-0.3,13.491c0.791,2.024,2.093,3.81,3.766,5.289c1.671,1.484,3.685,2.664,5.832,3.63
			c4.359,1.856,9.178,2.915,14.072,3.515c4.899,0.613,9.887,0.821,14.885,0.816c4.999,0.001,10.016-0.244,15.028-0.629
			c10.027-0.738,20.036-2.081,30.008-3.646c9.973-1.582,19.91-3.454,29.814-5.509c19.806-4.125,39.485-8.937,59.073-14.1
			c19.588-5.17,39.098-10.663,58.531-16.429c38.874-11.512,77.486-23.945,115.942-36.842c19.206-6.44,38.418-13.132,57.886-19.106
			c19.445-6.008,39.057-11.51,58.848-16.348c39.579-9.547,79.969-16.685,120.914-18.027c20.448-0.554,41.022,0.28,61.332,3.563
			c10.146,1.652,20.216,3.907,30.087,6.899c9.865,3.006,19.524,6.771,28.789,11.378c9.26,4.609,18.14,10.035,26.379,16.331
			c8.219,6.319,15.813,13.452,22.644,21.244c13.607,15.658,24.023,33.887,31.39,53.106c7.44,19.222,12.15,39.341,15.017,59.605
			c2.866,20.281,3.987,40.738,3.923,61.142c-0.147,40.836-4.734,81.442-11.419,121.56c-6.727,40.132-15.567,79.854-25.708,119.203
			c-10.157,39.35-21.516,78.364-33.658,117.118c-12.197,38.739-25.131,77.231-38.498,115.565
			c-6.692,19.164-13.471,38.297-20.355,57.391C3705.333,1721.268,3698.343,1740.323,3691.314,1759.363z"/>
		<path style="fill:#FFFFFF;" d="M831.749,751.999l-25.884,20.867l-12.941,10.433l-6.471,5.216l-6.404,5.298l-25.631,21.171
			l-12.816,10.583l-12.678,10.749l-25.337,21.516l-6.334,5.379l-6.266,5.458l-12.517,10.932l-25.034,21.864l-24.722,22.213
			c-8.211,7.437-16.565,14.714-24.654,22.284l-24.43,22.528c-4.057,3.771-8.177,7.473-12.181,11.3l-12.046,11.444l-24.09,22.886
			l-23.761,23.225c-7.898,7.764-15.906,15.416-23.643,23.342l-23.381,23.602l-5.845,5.9c-1.945,1.97-3.838,3.99-5.76,5.983
			l-11.489,11.995l-11.489,11.995c-3.815,4.012-7.699,7.958-11.423,12.056l-22.543,24.393l-5.636,6.098l-2.819,3.048l-2.763,3.098
			l-11.051,12.394l-11.051,12.394c-3.665,4.147-7.417,8.219-10.974,12.459l-21.587,25.229l-5.397,6.307
			c-1.794,2.106-3.515,4.273-5.276,6.406l-10.51,12.847c-14.199,16.983-27.569,34.617-41.204,52.04l-19.697,26.698l-4.929,6.671
			c-1.647,2.221-3.142,4.423-4.589,6.697c-2.855,4.527-5.385,9.261-6.899,14.115c-0.744,2.42-1.192,4.863-1.194,7.195
			c0.019,1.159,0.113,2.3,0.394,3.366c0.243,1.081,0.644,2.095,1.178,3.043c1.029,1.916,2.678,3.532,4.621,4.903
			c1.982,1.341,4.264,2.417,6.676,3.279c4.845,1.72,10.146,2.638,15.482,3.233c5.353,0.577,10.795,0.788,16.25,0.811
			c10.92,0.022,21.903-0.716,32.862-1.75c10.962-1.049,21.913-2.439,32.846-3.999c21.866-3.142,43.665-6.966,65.43-11.012
			c43.537-8.079,86.95-17.052,130.5-25.472c21.775-4.213,43.583-8.301,65.463-12.055c21.881-3.743,43.831-7.193,65.913-9.855
			c22.079-2.63,44.293-4.647,66.674-4.668c11.185,0.036,22.424,0.565,33.614,2.336c5.589,0.906,11.168,2.125,16.634,3.952
			c5.455,1.814,10.837,4.273,15.642,7.856c2.392,1.794,4.618,3.891,6.512,6.299c1.894,2.405,3.413,5.137,4.478,8.016
			c2.156,5.79,2.372,12.001,1.582,17.797c-0.383,2.916-1.024,5.762-1.834,8.531c-0.797,2.776-1.748,5.487-2.828,8.127
			c-2.132,5.299-4.699,10.357-7.498,15.249c-5.605,9.786-12.077,18.95-18.884,27.802c-6.834,8.834-14.04,17.343-21.46,25.641
			c-14.855,16.585-30.539,32.35-46.57,47.718c-16.047,15.355-32.48,30.283-49.167,44.909
			c-33.374,29.254-67.617,57.467-102.297,85.109c-34.72,27.594-69.876,54.622-105.298,81.288
			c-17.712,13.332-35.486,26.579-53.326,39.736c-17.86,13.13-35.778,26.181-53.74,39.168
			c70.967-53.141,141.546-106.825,210.285-162.777c34.397-27.932,68.384-56.376,101.438-85.847
			c16.513-14.747,32.828-29.714,48.717-45.106c15.875-15.4,31.385-31.181,46.012-47.709c7.305-8.268,14.382-16.727,21.059-25.466
			c6.648-8.751,12.935-17.779,18.292-27.267c2.671-4.743,5.116-9.598,7.101-14.592c1.01-2.491,1.885-5.021,2.607-7.573
			c0.738-2.55,1.305-5.13,1.633-7.71c0.683-5.149,0.424-10.349-1.323-14.979c-0.866-2.312-2.076-4.48-3.618-6.423
			c-1.542-1.944-3.384-3.676-5.428-5.198c-4.101-3.039-8.928-5.266-13.979-6.92c-5.055-1.671-10.342-2.814-15.692-3.661
			c-10.721-1.659-21.695-2.148-32.663-2.142c-21.967,0.098-43.983,2.168-65.896,4.86c-43.846,5.519-87.412,13.611-130.896,22.042
			c-43.49,8.458-86.895,17.496-130.526,25.63c-21.822,4.03-43.702,7.843-65.721,10.98c-11.011,1.558-22.057,2.948-33.161,3.997
			c-11.105,1.034-22.265,1.776-33.515,1.741c-5.625-0.031-11.273-0.253-16.94-0.87c-5.661-0.645-11.365-1.605-16.979-3.597
			c-2.799-1.007-5.578-2.292-8.186-4.064c-2.573-1.806-5.014-4.15-6.627-7.131c-0.821-1.466-1.44-3.059-1.809-4.68
			c-0.412-1.62-0.552-3.261-0.571-4.867c0.006-3.215,0.611-6.274,1.493-9.144c3.696-11.432,10.875-20.582,17.409-29.38
			l19.859-26.752c13.747-17.438,27.231-35.089,41.532-52.071l10.588-12.848c1.774-2.134,3.509-4.301,5.315-6.406l5.434-6.305
			l21.735-25.218c29.408-33.24,59.355-66.01,90.416-97.696l11.58-11.948c1.937-1.984,3.845-3.997,5.805-5.959l5.889-5.875
			l23.557-23.499c7.795-7.891,15.859-15.507,23.814-23.234c7.983-7.699,15.946-15.417,23.97-23.071
			c32.336-30.364,64.906-60.479,98.258-89.713l24.992-21.947l25.298-21.592l12.648-10.795l6.331-5.389l6.399-5.309l25.593-21.236
			l12.804-10.607l12.941-10.441l25.883-20.876l6.485-5.2l6.551-5.118l13.102-10.236L831.749,751.999z"/>
		<path style="fill:#FFFFFF;" d="M2462.08,442.97c-18.924,3.671-37.858,7.305-56.839,10.688
			c-18.984,3.363-37.993,6.602-57.045,9.583c-38.094,6.014-76.326,11.239-114.715,15.205c-38.388,3.905-76.948,6.535-115.603,6.829
			c-9.663,0-19.331-0.018-28.996-0.38c-4.834-0.117-9.664-0.402-14.496-0.614c-4.828-0.318-9.661-0.564-14.484-0.993
			c-4.828-0.354-9.645-0.862-14.465-1.341c-4.812-0.567-9.627-1.114-14.425-1.824c-9.6-1.371-19.167-3.067-28.647-5.232
			c-9.479-2.166-18.874-4.802-28.072-8.094c-9.186-3.306-18.216-7.202-26.743-12.127c-8.545-4.863-16.61-10.73-23.673-17.716
			c-7.11-6.931-13.056-15.107-17.559-23.987c-4.522-8.886-7.485-18.492-9.181-28.224c-1.713-9.742-2.222-19.611-2.029-29.392
			c0.42-19.59,3.599-38.808,6.327-57.821c1.348-9.507,2.599-18.999,2.979-28.408c0.167-4.696,0.144-9.383-0.412-13.931
			c-0.238-2.285-0.685-4.505-1.192-6.694c-0.585-2.157-1.263-4.275-2.179-6.257c-0.939-1.964-2.004-3.854-3.332-5.535
			c-1.344-1.662-2.812-3.229-4.53-4.531c-3.385-2.661-7.473-4.501-11.782-5.788c-8.708-2.489-18.211-2.792-27.6-2.35
			c-9.425,0.456-18.873,1.761-28.261,3.436c-2.346,0.396-4.699,0.872-7.053,1.356l-7.06,1.429l-14.115,2.879l-14.043,3.229
			c-4.675,1.104-9.379,2.08-14.02,3.327l-13.963,3.575l-6.981,1.787l-6.942,1.941c-74.162,20.369-146.323,47.722-216.767,78.709
			c-35.238,15.491-70.051,31.965-104.48,49.213l-25.739,13.103l-25.593,13.39c-4.277,2.21-8.512,4.501-12.75,6.784l-12.72,6.842
			c-8.504,4.519-16.901,9.232-25.336,13.879c-33.699,18.659-67.021,38-100.069,57.807c-33.022,19.851-65.695,40.285-98.09,61.157
			c-64.909,41.572-128.292,85.501-190.859,130.565l23.191-17.273c7.717-5.778,15.54-11.409,23.306-17.121l11.696-8.503l11.76-8.414
			c7.843-5.606,15.664-11.243,23.573-16.756c31.492-22.257,63.346-44.008,95.522-65.276c32.203-21.229,64.73-41.973,97.601-62.17
			c32.899-20.15,66.179-39.683,99.796-58.626c67.208-37.927,136.042-73.064,206.602-104.46
			c35.288-15.675,71.052-30.304,107.297-43.678c36.248-13.355,72.994-25.43,110.274-35.693l6.984-1.943l7.027-1.789l14.054-3.577
			c4.671-1.247,9.41-2.225,14.116-3.33l14.141-3.23l14.221-2.881l7.112-1.429c2.368-0.483,4.739-0.96,7.145-1.363
			c9.585-1.695,19.274-3.028,29.111-3.491c9.809-0.43,19.866-0.175,29.755,2.645c4.901,1.468,9.777,3.63,13.982,6.94
			c2.122,1.622,3.984,3.587,5.653,5.675c1.657,2.111,2.975,4.442,4.102,6.825c1.103,2.4,1.896,4.886,2.564,7.38
			c0.583,2.503,1.075,5.019,1.336,7.53c0.604,5.026,0.613,10.011,0.432,14.94c-0.402,9.862-1.751,19.504-3.138,29.071
			c-2.827,19.106-6.02,38.041-6.5,57.045c-0.226,9.482,0.233,18.958,1.822,28.216c1.574,9.252,4.328,18.28,8.522,26.605
			c4.181,8.319,9.686,15.974,16.356,22.528c6.617,6.608,14.258,12.202,22.417,16.932c8.141,4.779,16.856,8.615,25.775,11.893
			c8.931,3.265,18.11,5.911,27.406,8.102c9.298,2.19,18.716,3.926,28.188,5.345c4.733,0.734,9.492,1.306,14.248,1.9
			c4.768,0.506,9.533,1.042,14.317,1.425c4.775,0.458,9.569,0.734,14.356,1.082c4.795,0.243,9.586,0.56,14.388,0.708
			c9.597,0.416,19.209,0.55,28.822,0.633c38.463,0.082,76.94-2.21,115.291-5.697C2309.909,468.253,2386.151,456.31,2462.08,442.97z"
			/>
	</g>
	<g>
		<g>
			<path style="fill:#EA7DB8;" d="M1075.126,1297.307l262.992-37.57l252.157,114.459c41.318,18.755,57.663,68.903,35.333,108.403
				l-165.193,292.211h-45.223c0,0,34.547-233.307,83.899-287.788l-272.057-57.663L908.212,1579.99
				c0,0-74.871,127.26-377.793,209.672l-40.218-5.777l329.658-289.538L1075.126,1297.307z"/>
			<path style="fill:#EA7DB8;" d="M1436.349,1109.054L1312.493,914.28c-18.847-29.638-53.697-44.997-88.287-38.91l-72.838,12.817
				l-147.77,27.707c-44.706,8.382-73.744,51.749-64.751,96.337c31.202,154.701,136.279,285.075,136.279,285.075l262.992-37.57
				l-46.261-166.541l64,62.476c18.329,16.77,41.339,23.596,62.378,27.812l276.764,55.458l9.444-22.43
				C1503.014,1088.329,1436.349,1109.054,1436.349,1109.054z"/>
			<path style="fill:#103370;" d="M1338.118,1259.736c0,0,8.654,55.653-123.256,83.724c0,0,141.344,12.134,155.463-69.104
				L1338.118,1259.736z"/>
			<polygon style="fill:#103370;" points="1499.09,1487.023 1515.585,1476.968 1265.631,1428.026 1227.033,1429.36 			"/>
			<path style="fill:#103370;" d="M1424.532,1699.347c0,0,37.618-4.225,85.218-4.225l-57.947,94.46l-41.664,6.709L1424.532,1699.347
				z"/>
			<path style="fill:#103370;" d="M484.562,1781.037l86.242-73.87c0,0,54.344,36.878,85.162,41.366
				c0,0-108.48,40.931-127.021,44.496C528.945,1793.028,496.751,1800.183,484.562,1781.037z"/>
			<path style="fill:#EA7DB8;" d="M977.026,925.896l-261.082,213.692c0,0-64.355-18.459-257.042,134.216l20.006,23.503
				l249.018-84.501l315.558-111.698L977.026,925.896z"/>
			<polygon style="fill:#103370;" points="1291.857,1093.196 1264.275,983.422 1287.091,1012.722 1298.741,1099.917 			"/>
			<polygon style="fill:#103370;" points="974.748,1125.438 941.682,1035.161 947.476,1112.065 863.772,1155.698 863.772,1164.72 
							"/>
			<path style="fill:#103370;" d="M1152.321,888.978l-75.273,90.331l-37.636,45.166c-3.124,3.766-6.3,7.522-9.382,11.297
				c-3.01,3.757-5.415,8.01-6.973,12.574c-1.621,4.543-2.371,9.376-2.365,14.197c0.03,4.826,0.924,9.633,2.546,14.185
				c13.248,36.87,27.82,73.272,43.667,109.11c15.867,35.827,33.184,71.034,52.499,105.142
				c-19.495-34.006-37.003-69.133-53.065-104.89c-16.042-35.77-30.813-72.112-44.266-108.942c-1.691-4.663-2.641-9.62-2.697-14.594
				c-0.034-4.971,0.715-9.963,2.364-14.664c1.586-4.723,4.048-9.135,7.142-13.038c3.094-3.83,6.227-7.574,9.339-11.366
				l37.398-45.363l74.797-90.726L1152.321,888.978z"/>
			<g>
				<circle style="fill:#103370;" cx="1052.385" cy="1066.37" r="8.901"/>
				<circle style="fill:#103370;" cx="1078.714" cy="1139.588" r="8.901"/>
				<circle style="fill:#103370;" cx="1105.043" cy="1212.806" r="8.901"/>
			</g>
			<polygon style="fill:#103370;" points="908.212,1579.99 912.005,1559.22 1138.745,1463.897 1151.368,1465.108 			"/>
			<path style="fill:#103370;" d="M1075.126,1297.307c0,0,35.926,44.284,110.219,46.795c0,0-83.234,15.229-129.02-32.282
				L1075.126,1297.307z"/>
			<path style="fill:#103370;" d="M605.175,1727.528l277.503-203.288l0.026-0.019l0.026-0.015l249.423-144.482l-248.85,145.467
				l0.051-0.033l-276.711,204.364c-0.55,0.406-1.325,0.29-1.731-0.26c-0.406-0.55-0.29-1.325,0.26-1.731L605.175,1727.528z"/>
			<path style="fill:#103370;" d="M1461.013,1700.394l111.237-257.328l0.338,0.76l-221.058-75.899l221.423,74.826l0.579,0.196
				l-0.241,0.564l-110.004,257.857c-0.268,0.629-0.995,0.921-1.624,0.653c-0.629-0.268-0.921-0.995-0.653-1.624L1461.013,1700.394z"
				/>
			<g>
				<path style="fill:#103370;" d="M1089.822,804.599c1.223-66.407,58.056-71.198,58.056-71.198
					c14.344-2.671,44.996,22.373,45.478,61.419c0.457,37.007-6.595,67.671-20.939,70.342c-11.258,2.097-24.225-14.292-32.56-39.03
					L1089.822,804.599z"/>
				<path style="fill:#FFFFFF;" d="M1095.582,807.078l-64.706,111.838l82.194,6.98c0,0,23.512-46.287,26.787-99.764
					L1095.582,807.078z"/>
				<path style="fill:#FFFFFF;" d="M1094.029,777.796l3.096-7.862l37.22,9.002c4.005-39.595,20.637-44.57,20.637-44.57
					c-23.452,19.069-15.126,91.765-15.126,91.765l-4.99-2.148c-1.295-13.442-1.608-24.878-1.234-34.622L1094.029,777.796z"/>
				<path style="fill:#103370;" d="M1157.576,900.667c0,0-14.497,16.189-40.027,15.411c0,0,20.846-46.112,22.308-89.946
					c0,0,10.417,24.764,15.343,29.767L1157.576,900.667z"/>
			</g>
			<path style="fill:#103370;" d="M1693.981,1207.314l49.575,12.394v10.696c0,7.226-4.827,13.562-11.794,15.48l-15.479,4.263
				c-7.032,1.937-14.545,1.009-20.895-2.581l-23.417-13.239l-26.64-3.155l16.479-42.696L1693.981,1207.314z"/>
			<path style="fill:#1E69C4;" d="M1732.836,1177.283l226.32-622.681l-242.019,616.52c-21.057-4.015-42.653,7.365-50.769,28.047
				l84.614,33.204C1759.096,1211.691,1751.004,1188.661,1732.836,1177.283z"/>
			<path style="fill:#103370;" d="M483.356,1251.554l20.638,39.051l-42.406,13.104l-21.124,31.077l0,0
				c-4.012-2.579-5.842-7.496-4.492-12.07l6.426-21.777l-29.979,1.934l-24.139,13.898c-2.14,1.232-4.532-1.159-3.301-3.3
				l8.795-15.287c4.477-7.782,12.071-13.277,20.863-15.096l36.947-7.646L483.356,1251.554z"/>
			<g>
				<path style="fill:#EA7DB8;" d="M484.562,1781.037l-62.717,23.263c-9.702,3.599-17.497,11.028-21.557,20.547l0,0h140.234
					l-10.103-35.184C530.419,1789.663,509.606,1794.972,484.562,1781.037z"/>
				<rect x="400.288" y="1824.846" style="fill:#103370;" width="140.234" height="9.779"/>
				<path style="fill:#103370;" d="M465.263,1827.154c-0.244,0-0.48-0.126-0.611-0.352c-12.909-22.329-25.087-28.451-25.208-28.51
					c-0.35-0.171-0.496-0.593-0.326-0.942c0.17-0.351,0.591-0.497,0.942-0.327c0.511,0.247,12.661,6.319,25.814,29.072
					c0.195,0.338,0.08,0.77-0.258,0.964C465.504,1827.124,465.383,1827.154,465.263,1827.154z"/>
				<path style="fill:#103370;" d="M488.493,1827.154c-0.244,0-0.48-0.126-0.611-0.352c-12.961-22.421-30.467-35.089-30.642-35.214
					c-0.317-0.227-0.39-0.667-0.164-0.984c0.227-0.317,0.667-0.392,0.984-0.164c0.178,0.127,17.922,12.959,31.043,35.655
					c0.195,0.338,0.08,0.77-0.258,0.964C488.734,1827.124,488.613,1827.154,488.493,1827.154z"/>
			</g>
			<g>
				<path style="fill:#EA7DB8;" d="M1457.018,1780.956l62.717,23.263c9.702,3.599,17.497,11.028,21.557,20.547l0,0h-140.234
					l10.103-35.184C1411.161,1789.582,1431.974,1794.891,1457.018,1780.956z"/>
				<rect x="1401.058" y="1824.846" style="fill:#103370;" width="140.234" height="9.779"/>
				<path style="fill:#103370;" d="M1473.747,1827.597c-0.108,0-0.218-0.028-0.318-0.089c-0.293-0.176-0.388-0.556-0.212-0.849
					c13.574-22.624,26.654-29.75,27.204-30.043c0.3-0.16,0.676-0.046,0.837,0.256c0.16,0.302,0.046,0.677-0.256,0.837
					c-0.132,0.07-13.347,7.291-26.724,29.587C1474.162,1827.489,1473.957,1827.597,1473.747,1827.597z"/>
				<path style="fill:#103370;" d="M1442.267,1827.597c-0.098,0-0.197-0.023-0.29-0.072c-0.302-0.161-0.417-0.535-0.256-0.837
					c14.626-27.512,38.298-37.499,38.535-37.597c0.318-0.132,0.678,0.021,0.808,0.337s-0.021,0.678-0.336,0.808
					c-0.233,0.097-23.505,9.933-37.914,37.032C1442.702,1827.478,1442.488,1827.597,1442.267,1827.597z"/>
			</g>
		</g>
		<g>
			<path style="fill:#1E69C4;" d="M3101.006,1538.348l-394.355-203.575c0,0-104.55-7.863-213.453,8.419
				c-129.417,19.349-268.03,64.716-287.299,84.822c-35.482,37.025-133.984,341.952-133.984,341.952l28.507,23.736
				c193.831-210.934,156.625-268.847,156.625-268.847l335.321-31.196l428.879,120.425
				c129.718,123.115,366.142,182.756,366.142,182.756l33.313-26.874L3101.006,1538.348z"/>
			<path style="fill:#1E69C4;" d="M2822.111,1208.222l-163.291-215.089c-20.028-26.381-55.234-36.094-85.956-23.714l-141.388,56.974
				c-33.312,13.424-64.752,31.091-93.541,52.563l-148.963,111.106c0,0-132.378-29.531-299.086,55.49v26.673
				c0,0,268.4,8.336,313.411,0c45.011-8.335,223.426-105.216,223.427-105.217l89.655,237.627l190.271-69.862l-36.716-173.502
				l71.449,75.949c21.465,22.816,48.127,40.105,77.716,50.393l178.19,61.958l22.034-21.52
				C2901.593,1212.822,2822.111,1208.222,2822.111,1208.222z"/>
			<line style="fill:#1E69C4;" x1="2102.232" y1="1796.841" x2="2068.919" y2="1769.967"/>
			<g>
				<path style="fill:#103370;" d="M2521.406,1019.46l85.573,46.758c7.256,3.988,13.498,9.775,18.029,16.688
					c2.275,3.45,4.111,7.187,5.456,11.091c0.667,1.953,1.247,3.939,1.666,5.959c0.451,2.03,0.756,4.012,1.129,6.017l8.601,47.992
					l34.404,191.966l-35.622-191.744l-8.906-47.936c-0.383-1.987-0.711-4.021-1.156-5.955c-0.417-1.955-0.993-3.874-1.65-5.76
					c-1.326-3.77-3.124-7.373-5.344-10.693c-4.421-6.652-10.48-12.195-17.495-15.994l-85.865-46.213L2521.406,1019.46z"/>
				<circle style="fill:#103370;" cx="2607.441" cy="1093.784" r="8.901"/>
				<circle style="fill:#103370;" cx="2623.5" cy="1166.491" r="8.901"/>
				<circle style="fill:#103370;" cx="2639.559" cy="1239.199" r="8.901"/>
			</g>
			<g>
				<path style="fill:#103370;" d="M3277.937,1661.97c0,0-14.04,64.567-63.451,77.586c0,0,76.597,38.871,179.036,60.92
					l39.611-21.104L3277.937,1661.97z"/>
				<g>
					<path style="fill:#103370;" d="M2108.141,1652.299l97.758,18.44c0,0-45.02,75.167-102.22,130.907l-36.653-15.799
						L2108.141,1652.299z"/>
					<path style="fill:#103370;" d="M2493.198,1343.192c0,0,3.714,52.914,94.085,61.443c0,0-114.314,16.283-149.545-51.741
						L2493.198,1343.192z"/>
					<polygon style="fill:#103370;" points="2426.725,1167.008 2406.665,1115.556 2410.144,1158.065 2321.148,1210.416 
						2321.148,1221.864 					"/>
					<polygon style="fill:#103370;" points="2669.935,1161.271 2655.016,1095.763 2679.779,1152.484 2736.84,1218.102 
						2741.384,1237.22 					"/>
					<path style="fill:#103370;" d="M2706.65,1334.773c0,0-15.473,26.953-51.635,50.788l54.272-4.714
						c21.14-1.836,42.425,0.986,62.356,8.27l61.937,22.633c7.407,2.707,15.44,3.207,23.126,1.442l1.282-0.295L2706.65,1334.773z"/>
					<polygon style="fill:#103370;" points="2257.047,1524.856 2249.211,1513.252 2577.247,1487.417 2592.368,1493.66 					"/>
					<polygon style="fill:#103370;" points="3021.246,1614.084 3021.246,1594.081 2676.263,1510.501 2659.89,1512.619 					"/>
				</g>
				<path style="fill:#103370;" d="M3259.834,1704.062l-211.52-143.893l0.177,0.089l-393.476-138.373l393.982,136.924l0.093,0.032
					l0.084,0.057l212.048,143.114c0.567,0.382,0.716,1.152,0.333,1.719c-0.382,0.567-1.152,0.716-1.719,0.333L3259.834,1704.062z"/>
				<path style="fill:#103370;" d="M2155.836,1661.169l74.377-181.238l0.085-0.208l0.221-0.033l338.41-49.98l-338.294,50.759
					l0.306-0.24l-73.96,181.409c-0.129,0.317-0.49,0.468-0.807,0.339c-0.316-0.129-0.468-0.49-0.339-0.807L2155.836,1661.169z"/>
			</g>
			<path style="fill:#103370;" d="M1947.556,1215.027l5.627,63.551l-59.754-6.052l-10.843,4.908
				c-12.416,5.62-26.544,6.129-39.333,1.418l-19.609-7.223l0.088-34.258l66.238-5.315L1947.556,1215.027z"/>
			<path style="fill:#EA7DB8;" d="M1843.915,1209.218l-395.736-692.949l381.003,701.157c-16.48,13.71-21.415,37.616-10.601,57.024
				l79.403-44.24C1887.17,1210.802,1864.244,1202.418,1843.915,1209.218z"/>
			<path style="fill:#103370;" d="M3006.47,1310.52l-21.873,37.821l29.619,10.481l34.632,35.543l0,0
				c2.963-2.963,3.587-7.537,1.528-11.185l-12.464-22.079l48.87,24.842c1.531,0.778,3.089-1.001,2.115-2.416l-15.46-22.46
				c-2.327-3.38-5.278-6.285-8.694-8.558l-35.032-23.306L3006.47,1310.52z"/>
			<g>
				<path style="fill:#1E69C4;" d="M3387.388,1796.841l2.503,27.629h146.498l0,0c-5.579-10.229-14.711-18.061-25.671-22.016
					l-90.017-32.487C3420.701,1769.967,3419.542,1794.871,3387.388,1796.841z"/>
				<rect x="3390.033" y="1824.47" style="fill:#103370;" width="146.356" height="9.779"/>
				<path style="fill:#103370;" d="M3436.534,1825.089c-0.018,0-0.036-0.001-0.054-0.003c-0.341-0.028-0.593-0.328-0.563-0.669
					c1.968-23.081,19.052-42.083,19.224-42.272c0.229-0.253,0.621-0.271,0.875-0.041c0.252,0.23,0.271,0.622,0.041,0.875
					c-0.17,0.186-16.975,18.889-18.907,41.544C3437.122,1824.845,3436.852,1825.089,3436.534,1825.089z"/>
				<path style="fill:#103370;" d="M3453.68,1830.804c-0.018,0-0.036-0.001-0.054-0.003c-0.341-0.028-0.593-0.328-0.563-0.669
					c1.968-23.081,19.052-42.083,19.224-42.272c0.229-0.253,0.621-0.271,0.875-0.041c0.252,0.23,0.271,0.622,0.041,0.875
					c-0.17,0.186-16.975,18.889-18.907,41.544C3454.268,1830.56,3453.997,1830.804,3453.68,1830.804z"/>
			</g>
			<g>
				<path style="fill:#1E69C4;" d="M2108.156,1797.217l-2.503,27.629h-146.498l1.04-1.906c4.91-9.001,12.945-15.892,22.589-19.373
					l92.059-33.224C2074.843,1770.343,2078.449,1800.082,2108.156,1797.217z"/>
				<rect x="1959.155" y="1824.846" style="fill:#103370;" width="146.746" height="9.779"/>
				<path style="fill:#103370;" d="M2032.528,1825.466c-0.232,0-0.455-0.132-0.561-0.355
					c-11.544-24.553-21.572-30.446-21.673-30.503c-0.297-0.168-0.401-0.546-0.232-0.844c0.167-0.296,0.542-0.403,0.844-0.232
					c0.422,0.239,10.472,6.146,22.183,31.052c0.145,0.31,0.012,0.679-0.297,0.824
					C2032.707,1825.446,2032.617,1825.466,2032.528,1825.466z"/>
				<path style="fill:#103370;" d="M2056.85,1825.553c-0.289,0-0.56-0.179-0.663-0.466c-11.52-31.833-25.281-37.619-25.419-37.674
					c-0.362-0.144-0.539-0.554-0.395-0.916c0.144-0.362,0.554-0.537,0.916-0.395c0.586,0.232,14.49,6.08,26.224,38.504
					c0.133,0.366-0.057,0.771-0.423,0.903C2057.011,1825.539,2056.93,1825.553,2056.85,1825.553z"/>
			</g>
			<g>
				<path style="fill:#103370;" d="M2511.295,907.622c-13.361-65.061-70.111-59.364-70.111-59.364
					c-14.591,0-26.419,30.003-26.419,67.013c0,37.01,11.828,67.013,26.419,67.013c11.452,0,21.199-18.486,24.864-44.332
					L2511.295,907.622z"/>
				<path style="fill:#FFFFFF;" d="M2506.086,911.114l60.625,61.692l-56.063,58.319c0,0-44.6-37.169-44.6-93.173L2506.086,911.114z"
					/>
				<path style="fill:#FFFFFF;" d="M2502.251,882.044l-4.483-7.162l-34.943,15.665c-11.187-38.193-28.449-40.038-28.449-40.038
					c26.547,14.452,31.671,87.444,31.671,87.444l4.513-3.025c-1.188-13.452-2.974-24.752-5.126-34.263L2502.251,882.044z"/>
				<path style="fill:#103370;" d="M2462.275,1014.472c0,0,14.473,13.306,39.429,7.867c0,0-36.303-36.184-35.656-84.386
					c0,0-5.707,26.253-9.634,32.073L2462.275,1014.472z"/>
			</g>
		</g>
	</g>
	<g>
		<rect x="198.134" y="1832.691" style="fill:#103370;" width="145.183" height="3.867"/>
		<rect x="583.147" y="1832.691" style="fill:#103370;" width="2740.663" height="3.867"/>
		<rect x="3566.974" y="1832.691" style="fill:#103370;" width="150.98" height="3.867"/>
	</g>
	<path style="fill:#C2E7F7;" d="M1479.377,266.849c-392.773,188.647-754.89,440.945-1067.915,744.052
		C658.592,622.716,1030.652,368.857,1479.377,266.849z"/>
	<path style="fill:#FFFFFF;" d="M631.122,733.206c7.183-7.362,14.505-14.589,21.871-21.772c7.392-7.155,14.857-14.234,22.361-21.274
		c15.028-14.057,30.23-27.931,45.621-41.597c30.842-27.262,62.372-53.76,94.627-79.36c32.204-25.666,65.182-50.367,98.798-74.179
		c16.804-11.912,33.824-23.522,51.021-34.866c17.205-11.331,34.532-22.485,52.111-33.239c17.598-10.72,35.347-21.198,53.323-31.281
		c17.995-10.048,36.135-19.844,54.531-29.152c18.424-9.251,37.035-18.127,55.846-26.57c18.846-8.367,37.914-16.233,57.192-23.553
		c19.297-7.27,38.818-13.949,58.546-19.947l14.836-4.365l14.935-4.016l3.733-1.003l3.757-0.915l7.514-1.822l7.513-1.822l7.56-1.62
		l7.563-1.6l3.781-0.799l3.802-0.696l15.206-2.775l15.276-2.347c2.541-0.421,5.099-0.726,7.656-1.035l7.668-0.942
		c2.558-0.296,5.106-0.67,7.671-0.9l7.692-0.7l7.69-0.699c1.28-0.132,2.564-0.219,3.85-0.282l3.855-0.218l7.709-0.412
		c2.569-0.137,5.136-0.3,7.711-0.311l15.428-0.289c-41.103,1.703-81.957,7.444-121.824,17.24
		c-39.954,9.428-79.006,22.333-117.232,37.204c-19.076,7.55-37.952,15.595-56.654,24.03c-18.653,8.546-37.107,17.524-55.373,26.873
		c-18.244,9.394-36.31,19.134-54.195,29.204c-17.877,10.084-35.523,20.576-53.035,31.287
		c-35.03,21.415-69.337,44.023-102.993,67.566c-16.846,11.747-33.552,23.698-50.069,35.912
		c-16.508,12.224-32.905,24.603-49.153,37.177c-32.466,25.188-64.395,51.085-95.715,77.714
		C691.739,677.597,660.998,704.927,631.122,733.206z"/>
</g>
</svg>
